<svg width="284" height="177" viewBox="0 0 284 177" fill="none" xmlns="http://www.w3.org/2000/svg">
<g style="mix-blend-mode:multiply" opacity="0.4">
<path d="M111.892 174.078C138.134 174.078 159.408 154.601 159.408 130.576C159.408 106.55 138.134 87.074 111.892 87.074C85.6496 87.074 64.376 106.55 64.376 130.576C64.376 154.601 85.6496 174.078 111.892 174.078Z" fill="white"/>
<path d="M113.118 173.218C139.361 173.074 160.507 153.48 160.349 129.455C160.192 105.43 138.791 86.07 112.548 86.2141C86.3059 86.3583 65.1599 105.952 65.3173 129.977C65.4748 154.002 86.8761 173.362 113.118 173.218Z" fill="#FAFDF7"/>
<path d="M114.295 172.384C140.535 172.103 161.559 152.4 161.252 128.376C160.945 104.352 139.424 85.1051 113.184 85.3861C86.9431 85.667 65.9197 105.37 66.2265 129.394C66.5334 153.417 88.0543 172.665 114.295 172.384Z" fill="#F5FCEF"/>
<path d="M115.518 171.556C141.76 171.124 162.651 151.297 162.178 127.271C161.706 103.246 140.049 84.1201 113.807 84.5526C87.5647 84.985 66.6739 104.812 67.1463 128.837C67.6187 152.863 89.2752 171.989 115.518 171.556Z" fill="#EFFAE7"/>
<path d="M116.78 170.682C143.014 170.078 163.746 150.118 163.087 126.101C162.427 102.083 140.626 83.1019 114.392 83.7056C88.1575 84.3094 67.4252 104.269 68.0847 128.287C68.7442 152.305 90.5457 171.286 116.78 170.682Z" fill="#EAF8DF"/>
<path d="M118.059 169.828C144.287 169.044 164.856 148.943 164 124.93C163.144 100.917 141.188 82.0865 114.959 82.8701C88.7311 83.6537 68.1626 103.755 69.0185 127.768C69.8743 151.78 91.8305 170.611 118.059 169.828Z" fill="#E5F6D7"/>
<path d="M119.387 168.942C145.603 167.957 165.984 147.701 164.908 123.7C163.832 99.6982 141.707 81.0398 115.491 82.0248C89.2748 83.0099 68.8947 103.265 69.9706 127.267C71.0466 151.268 93.1711 169.927 119.387 168.942Z" fill="#E0F5D0"/>
<path d="M120.674 168.145C146.89 166.968 167.1 146.556 165.814 122.555C164.528 98.5537 142.233 80.051 116.017 81.2283C89.8012 82.4055 69.5912 102.817 70.8771 126.818C72.163 150.82 94.4578 169.322 120.674 168.145Z" fill="#DAF3C8"/>
<path d="M122.082 167.238C148.278 165.822 168.261 145.232 166.714 121.248C165.168 97.2644 142.677 78.9697 116.48 80.3858C90.2835 81.8019 70.3008 102.392 71.8475 126.376C73.3942 150.36 95.8848 168.654 122.082 167.238Z" fill="#D5F1C0"/>
<path d="M123.495 166.364C149.674 164.7 169.423 143.922 167.606 119.954C165.789 95.9861 143.093 77.9052 116.914 79.569C90.7343 81.2328 70.985 102.011 72.8023 125.979C74.6196 149.947 97.3154 168.028 123.495 166.364Z" fill="#D0EFB8"/>
<path d="M124.952 165.481C151.109 163.547 170.601 142.566 168.489 118.619C166.376 94.6711 143.459 76.8256 117.302 78.7595C91.145 80.6934 71.6528 101.674 73.7652 125.622C75.8776 149.569 98.7946 167.415 124.952 165.481Z" fill="#CBEEB0"/>
<path d="M126.461 164.589C152.59 162.359 171.798 141.16 169.363 117.238C166.928 93.3163 143.772 75.731 117.643 77.9603C91.5139 80.1895 72.306 101.389 74.7409 125.311C77.1759 149.233 100.332 166.818 126.461 164.589Z" fill="#C6ECA8"/>
<path d="M127.984 163.667C154.069 161.12 172.96 139.696 170.178 115.815C167.396 91.9335 143.995 74.6384 117.911 77.1851C91.8257 79.7318 72.9347 101.156 75.7164 125.037C78.4981 148.918 101.899 166.213 127.984 163.667Z" fill="#C0EAA0"/>
<path d="M129.662 162.799C155.72 159.892 174.271 138.195 171.096 114.338C167.92 90.4806 144.222 73.4971 118.163 76.4042C92.1042 79.3113 73.5536 101.008 76.7289 124.865C79.9043 148.723 103.603 165.706 129.662 162.799Z" fill="#BBE898"/>
<path d="M131.347 161.829C157.341 158.529 175.491 136.562 171.887 112.765C168.283 88.9667 144.289 72.3498 118.295 75.6494C92.3015 78.9491 74.1512 100.916 77.7554 124.714C81.3595 148.511 105.353 165.128 131.347 161.829Z" fill="#B6E790"/>
<path d="M133.127 160.867C159.051 157.134 176.761 134.869 172.685 111.135C168.608 87.4011 144.288 71.1867 118.364 74.9191C92.4402 78.6514 74.7296 100.917 78.8063 124.651C82.883 148.385 107.203 164.599 133.127 160.867Z" fill="#B1E588"/>
<path d="M134.998 159.876C160.834 155.664 178.05 133.076 173.45 109.422C168.85 85.7687 144.177 70.0076 118.341 74.2188C92.5048 78.43 75.2894 101.019 79.8892 124.672C84.489 148.326 109.162 164.087 134.998 159.876Z" fill="#ABE381"/>
<path d="M136.97 158.848C162.696 154.107 179.353 131.17 174.174 107.617C168.995 84.0638 143.942 68.814 118.215 73.5554C92.489 78.2968 75.8321 101.234 81.011 124.787C86.19 148.34 111.244 163.589 136.97 158.848Z" fill="#A6E179"/>
<path d="M139.069 157.76C164.655 152.427 180.674 129.113 174.848 105.689C169.023 82.2637 143.558 67.598 117.972 72.9316C92.3854 78.2652 76.3663 101.579 82.1921 125.003C88.0179 148.428 113.482 163.094 139.069 157.76Z" fill="#A1E071"/>
<path d="M141.27 156.643C166.686 150.661 181.993 126.948 175.46 103.68C168.926 80.4107 143.026 66.3968 117.61 72.3786C92.1936 78.3604 76.8865 102.073 83.4202 125.342C89.954 148.61 115.854 162.624 141.27 156.643Z" fill="#9CDE69"/>
<path d="M143.62 155.44C168.821 148.736 183.314 124.599 175.992 101.528C168.67 78.4565 142.306 65.1876 117.106 71.8909C91.9054 78.5941 77.4121 102.731 84.7339 125.803C92.0557 148.874 118.42 162.143 143.62 155.44Z" fill="#96DC61"/>
<path d="M146.118 154.148C171.049 146.649 184.62 122.066 176.43 99.2412C168.239 76.4161 141.388 63.9916 116.457 71.4904C91.5253 78.9892 77.9544 103.572 86.1451 126.397C94.3359 149.222 121.187 161.646 146.118 154.148Z" fill="#91DA59"/>
<path d="M148.713 152.735C173.302 144.374 185.832 119.347 176.7 96.8347C167.567 74.3229 140.231 62.8513 115.642 71.2121C91.0525 79.573 78.5224 104.6 87.6547 127.112C96.787 149.624 124.124 161.095 148.713 152.735Z" fill="#8CD951"/>
<path d="M151.597 151.23C175.793 141.908 187.153 116.394 176.971 94.2421C166.789 72.0906 138.92 61.6902 114.725 71.0121C90.5293 80.3339 79.1692 105.848 89.3512 128C99.5333 150.151 127.402 160.551 151.597 151.23Z" fill="#87D749"/>
<path d="M154.472 149.564C178.169 139.242 188.239 113.287 176.964 91.592C165.689 69.8971 137.339 60.6779 113.642 71.0002C89.9454 81.3226 79.8755 107.278 91.1503 128.973C102.425 150.668 130.775 159.887 154.472 149.564Z" fill="#82D541"/>
<path d="M157.493 147.748C180.603 136.365 189.26 109.986 176.827 88.8282C164.395 67.67 135.582 59.7448 112.471 71.1269C89.3608 82.5089 80.7044 108.888 93.1367 130.046C105.569 151.204 134.382 159.13 157.493 147.748Z" fill="#7CD339"/>
<path d="M169.505 139.352C188.061 122.363 188.061 94.8196 169.505 77.831C150.949 60.8425 120.863 60.8425 102.307 77.831C83.7507 94.8196 83.7507 122.363 102.307 139.352C120.863 156.341 150.949 156.341 169.505 139.352Z" fill="#77D232"/>
<path d="M170.428 138.507C188.984 121.519 188.984 93.9747 170.428 76.9862C151.871 59.9977 121.786 59.9977 103.23 76.9862C84.6736 93.9747 84.6736 121.519 103.23 138.507C121.786 155.496 151.871 155.496 170.428 138.507Z" fill="#72D02A"/>
<path d="M171.351 137.661C189.907 120.672 189.907 93.1285 171.351 76.14C152.795 59.1514 122.71 59.1514 104.154 76.14C85.5974 93.1285 85.5974 120.672 104.154 137.661C122.71 154.649 152.795 154.649 171.351 137.661Z" fill="#6DCE22"/>
<path d="M172.274 136.815C190.83 119.826 190.83 92.2825 172.274 75.294C153.718 58.3055 123.633 58.3055 105.076 75.294C86.5203 92.2825 86.5203 119.826 105.076 136.815C123.633 153.803 153.718 153.803 172.274 136.815Z" fill="#67CC1A"/>
<path d="M173.198 135.97C191.754 118.982 191.754 91.4377 173.198 74.4492C154.642 57.4606 124.556 57.4606 106 74.4492C87.4441 91.4377 87.4441 118.982 106 135.97C124.556 152.959 154.642 152.959 173.198 135.97Z" fill="#62CB12"/>
<path d="M174.123 135.124C192.679 118.136 192.679 90.5918 174.123 73.6032C155.567 56.6147 125.481 56.6147 106.925 73.6032C88.3689 90.5918 88.3689 118.136 106.925 135.124C125.481 152.113 155.567 152.113 174.123 135.124Z" fill="#5DC90A"/>
</g>
<path d="M174.123 135.124C192.679 118.136 192.679 90.5918 174.123 73.6032C155.567 56.6147 125.481 56.6147 106.925 73.6032C88.3689 90.5918 88.3689 118.136 106.925 135.124C125.481 152.113 155.567 152.113 174.123 135.124Z" fill="#5DC90A"/>
<path d="M140.524 148.782C130.928 148.782 121.548 146.177 113.569 141.297C105.59 136.416 99.3716 129.479 95.6993 121.362C92.027 113.246 91.0661 104.315 92.938 95.6986C94.8099 87.0822 99.4306 79.1675 106.216 72.9554C113.001 66.7433 121.646 62.5128 131.057 60.7988C140.469 59.0849 150.224 59.9644 159.089 63.3263C167.955 66.6882 175.532 72.3814 180.863 79.686C186.194 86.9906 189.04 95.5784 189.04 104.364C189.025 116.14 183.909 127.43 174.814 135.757C165.719 144.084 153.387 148.768 140.524 148.782ZM140.524 61.7772C131.324 61.777 122.33 64.2746 114.68 68.9541C107.03 73.6336 101.068 80.2848 97.547 88.0666C94.0261 95.8485 93.1048 104.411 94.8996 112.673C96.6945 120.934 101.125 128.522 107.63 134.478C114.136 140.434 122.425 144.49 131.448 146.134C140.472 147.777 149.825 146.933 158.325 143.71C166.825 140.486 174.09 135.028 179.201 128.024C184.312 121.021 187.04 112.787 187.04 104.364C187.026 93.0729 182.121 82.2484 173.4 74.2647C164.68 66.2809 152.856 61.7901 140.524 61.7772Z" fill="white"/>
<path d="M135.651 153.014C124.618 152.979 113.928 149.5 105.347 143.152C96.7655 136.804 90.8053 127.966 88.4508 118.098C88.4091 117.92 88.4465 117.734 88.5546 117.581C88.6627 117.428 88.8327 117.321 89.0273 117.283C89.2218 117.245 89.4249 117.279 89.5919 117.378C89.7589 117.477 89.8761 117.633 89.9178 117.811C91.2982 123.672 94.0062 129.202 97.8669 134.045C101.728 138.888 106.655 142.936 112.331 145.927C118.007 148.918 124.305 150.785 130.819 151.409C137.332 152.032 143.916 151.398 150.145 149.546C150.239 149.517 150.338 149.505 150.437 149.512C150.536 149.518 150.633 149.542 150.721 149.583C150.81 149.623 150.889 149.68 150.954 149.749C151.019 149.817 151.068 149.897 151.099 149.984C151.129 150.07 151.141 150.161 151.133 150.252C151.125 150.342 151.098 150.43 151.052 150.511C151.007 150.592 150.944 150.664 150.868 150.722C150.792 150.781 150.704 150.825 150.61 150.852C145.779 152.289 140.73 153.019 135.651 153.014ZM167.465 141.825C167.313 141.824 167.166 141.782 167.041 141.703C166.916 141.624 166.821 141.513 166.767 141.383C166.712 141.254 166.702 141.113 166.738 140.978C166.773 140.843 166.852 140.721 166.965 140.628C171.825 136.61 175.712 131.704 178.374 126.227C181.036 120.749 182.414 114.821 182.42 108.826V108.65C182.418 108.468 182.496 108.293 182.636 108.163C182.776 108.033 182.966 107.959 183.165 107.958C183.363 107.958 183.553 108.03 183.693 108.157C183.834 108.285 183.913 108.459 183.915 108.64V108.823C183.909 115.011 182.487 121.128 179.739 126.782C176.992 132.435 172.981 137.499 167.965 141.645C167.828 141.76 167.65 141.824 167.465 141.825ZM88.1338 109.557C88.0381 109.562 87.9423 109.549 87.8521 109.519C87.762 109.49 87.6794 109.443 87.6093 109.383C87.5392 109.324 87.4831 109.251 87.4443 109.171C87.4056 109.091 87.385 109.004 87.3838 108.916V108.825C87.3901 102.653 88.8055 96.5505 91.5392 90.9089C94.2728 85.2673 98.2644 80.2111 103.258 76.0648C103.33 76.0013 103.416 75.9519 103.509 75.9192C103.603 75.8866 103.703 75.8714 103.803 75.8747C103.903 75.878 104.001 75.8996 104.092 75.9382C104.183 75.9769 104.265 76.0318 104.332 76.0998C104.399 76.1677 104.451 76.2474 104.484 76.3339C104.517 76.4205 104.531 76.5123 104.525 76.6038C104.519 76.6954 104.492 76.7848 104.448 76.867C104.403 76.9491 104.341 77.0221 104.265 77.0819C99.4261 81.0995 95.5582 85.9989 92.9093 91.4655C90.2604 96.9321 88.8889 102.845 88.8828 108.826C88.8844 109.012 88.8075 109.192 88.6681 109.329C88.5287 109.465 88.3373 109.547 88.1338 109.557ZM182.097 100.296C181.926 100.295 181.76 100.241 181.626 100.143C181.493 100.044 181.401 99.9071 181.365 99.7539C179.972 93.8951 177.251 88.3692 173.38 83.5332C169.508 78.6971 164.571 74.6585 158.888 71.6784C153.205 68.6982 146.902 66.8429 140.387 66.2321C133.872 65.6213 127.29 66.2688 121.065 68.1327C120.971 68.1621 120.871 68.1742 120.772 68.1682C120.673 68.1622 120.577 68.1383 120.488 68.0978C120.399 68.0573 120.32 68.001 120.255 67.9323C120.19 67.8635 120.14 67.7837 120.109 67.6973C120.078 67.6109 120.066 67.5198 120.074 67.4292C120.082 67.3386 120.109 67.2503 120.155 67.1694C120.2 67.0886 120.262 67.0168 120.338 66.9582C120.414 66.8996 120.502 66.8553 120.597 66.8281C127.021 64.9043 133.815 64.236 140.539 64.8664C147.263 65.4967 153.768 67.4116 159.633 70.4874C165.498 73.5632 170.593 77.7314 174.588 82.7226C178.584 87.7138 181.391 93.417 182.829 99.4636C182.85 99.5518 182.851 99.6428 182.834 99.7315C182.816 99.8203 182.78 99.905 182.727 99.9808C182.673 100.057 182.604 100.122 182.523 100.174C182.442 100.225 182.351 100.261 182.255 100.28C182.203 100.29 182.15 100.295 182.097 100.296Z" fill="black"/>
<path d="M130.602 127.872L110.357 109.338L117.64 102.67L130.601 114.536L163.338 84.5646L170.621 91.2323L130.602 127.872Z" fill="white"/>
<path d="M130.603 129.452L108.632 109.338L117.642 101.089L130.603 112.954L163.34 82.9834L172.35 91.2323L130.603 129.452ZM112.085 109.338L130.603 126.29L168.896 91.2323L163.34 86.1447L130.603 116.116L117.642 104.25L112.085 109.338Z" fill="white"/>
<path d="M53.4756 134.274C51.6316 128.292 43.1396 128.872 43.1396 128.872L43.3727 133.032C48.2817 132.258 51.3327 137.524 51.3327 137.524L53.4756 134.274Z" fill="#E0E0E0"/>
<path d="M178.167 65.2095C188.017 67.9414 194.145 57.5411 194.145 57.5411L188.153 54.4146C185.223 60.7857 175.385 60.0487 175.385 60.0487L178.167 65.2095Z" fill="#E0E0E0"/>
<path d="M259.933 121.043C258.027 116.07 250.875 116.972 250.875 116.972L251.312 120.481C255.421 119.588 258.307 123.898 258.307 123.898L259.933 121.043Z" fill="#E0E0E0"/>
<path d="M146.957 4.54997C145.051 -0.423133 137.898 0.478656 137.898 0.478656L138.336 3.98784C142.445 3.09429 145.33 7.40456 145.33 7.40456L146.957 4.54997Z" fill="#E0E0E0"/>
<path d="M61.6127 68.1867C59.7067 63.2136 52.5547 64.1145 52.5547 64.1145L52.9917 67.6237C57.1007 66.731 59.9857 71.0404 59.9857 71.0404L61.6127 68.1867Z" fill="#EBEBEB"/>
<path d="M43.6806 21.6947C38.0006 22.547 37.7266 29.1525 37.7266 29.1525L41.5766 29.3686C41.3306 25.5087 46.4686 23.6566 46.4686 23.6566L43.6806 21.6947Z" fill="#EBEBEB"/>
<path d="M2.78296 176.403C12.633 179.135 18.762 168.735 18.762 168.735L12.769 165.608C9.83895 171.979 0.000976562 171.242 0.000976562 171.242L2.78296 176.403Z" fill="#EBEBEB"/>
<path d="M283.392 65.7882C284.058 61.6125 278.618 59.819 278.618 59.819L277.504 62.4576C280.782 63.2211 281.08 67.2595 281.08 67.2595L283.392 65.7882Z" fill="#E0E0E0"/>
<path d="M250.645 19.9234C246.804 22.257 248.978 27.1624 248.978 27.1624L251.866 26.1553C250.3 23.4088 253.385 20.512 253.385 20.512L250.645 19.9234Z" fill="#EBEBEB"/>
<path d="M215.778 144.694C213.933 138.712 205.441 139.293 205.441 139.293L205.675 143.454C210.584 142.678 213.635 147.945 213.635 147.945L215.778 144.694Z" fill="#28B0E8"/>
<path d="M132.228 75.0973C127.644 75.5422 127.096 80.812 127.096 80.812L130.164 81.1452C130.159 78.0489 134.358 76.7828 134.358 76.7828L132.228 75.0973Z" fill="#28B0E8"/>
<path d="M174.911 19.2762C177.711 25.7993 187.164 24.2823 187.164 24.2823L186.396 19.6387C180.984 21.012 176.921 15.4109 176.921 15.4109L174.911 19.2762Z" fill="#28B0E8"/>
<path d="M68.2766 129.471C63.6926 129.917 63.1445 135.186 63.1445 135.186L66.2125 135.52C66.2125 132.423 70.4065 131.156 70.4065 131.156L68.2766 129.471Z" fill="#28B0E8"/>
<path d="M87.1634 40.1244C87.8294 35.9487 82.3894 34.1552 82.3894 34.1552L81.2754 36.7937C84.5534 37.5573 84.8514 41.5956 84.8514 41.5956L87.1634 40.1244Z" fill="#28B0E8"/>
<path d="M8.79395 104.216C7.96995 110.764 17.445 112.35 17.445 112.35L19.1539 108.065C13.4699 107.595 12.6489 101.464 12.6489 101.464L8.79395 104.216Z" fill="#28B0E8"/>
<path d="M233.971 72.6178C238.571 72.8586 240.046 67.7399 240.046 67.7399L237.078 66.9554C236.534 70.0123 232.166 70.6385 232.166 70.6385L233.971 72.6178Z" fill="#28B0E8"/>
</svg>
