<svg width="123" height="114" viewBox="0 0 123 114" fill="none" xmlns="http://www.w3.org/2000/svg">
<path opacity="0.15" d="M61.9531 113.715C95.6425 113.715 122.953 88.7116 122.953 57.8683C122.953 27.025 95.6425 2.02155 61.9531 2.02155C28.2638 2.02155 0.953125 27.025 0.953125 57.8683C0.953125 88.7116 28.2638 113.715 61.9531 113.715Z" fill="#FF4A4A"/>
<path d="M48.4157 26.3668C47.4397 26.1159 47.4427 26.8776 46.9427 26.906C46.1557 26.9527 46.1137 27.6384 46.8857 27.6183L46.3947 28.0422C46.0614 28.5762 45.8837 28.6516 45.8617 28.2683C46.0347 28.2546 45.4317 28.9092 45.5357 28.8121C45.2217 28.5851 44.9127 28.6006 44.9197 29.0108C44.9297 29.821 43.1047 29.6764 43.7337 30.2376C43.8007 30.1057 43.9257 30.0691 44.1147 30.125C43.6147 30.5946 43.6757 30.6157 43.0687 30.5754C42.5327 30.5415 42.9107 30.894 42.6047 31.0469C42.2427 31.2254 42.4157 31.6383 42.0377 31.9542C41.4237 32.4687 41.7897 32.1547 41.0927 32.6939C41.091 32.601 41.1044 32.5085 41.1327 32.4193C40.9377 32.5786 40.6687 32.4019 40.8147 32.7855C40.1827 32.4312 40.0547 32.78 40.2867 33.3027C40.1047 33.4428 39.9247 33.5774 39.7397 33.7138C39.6397 33.7843 38.6397 34.0498 38.6027 34.1075C38.7317 33.8804 39.2337 33.6671 38.7737 33.451C38.4737 33.3055 38.3597 33.8246 38.3337 33.9793C38.2627 34.3977 38.5337 34.4993 37.9677 34.6522C37.6597 34.7294 37.3376 34.7471 37.0217 34.7044C37.0397 34.741 36.7707 34.0425 36.6097 34.1121C36.6917 34.2878 36.7647 34.4664 36.8357 34.6458C36.7467 34.5369 36.7067 34.5396 36.7097 34.655C36.6667 34.481 36.6247 34.3052 36.5817 34.1322C36.3677 34.4362 36.5197 35.1146 36.5507 35.4551C36.5537 35.3794 36.5273 35.3051 36.476 35.2455C36.4247 35.186 36.3519 35.1451 36.2707 35.1301C36.1247 35.1979 36.0937 35.4853 36.0417 35.6071C35.9127 35.912 35.2177 35.5284 34.9567 35.7902C35.0397 35.2098 34.6567 35.6987 34.4937 35.8378C34.2537 36.1058 33.9096 36.2781 33.5337 36.3185C33.5087 36.2068 33.3407 35.2693 32.9597 35.424C32.5387 35.5998 32.5757 36.2333 32.5657 35.3325C32.4537 35.5229 32.0877 36.2617 31.6897 36.1125C31.762 35.9209 31.811 35.7225 31.8357 35.521C31.8357 35.521 31.5147 35.9706 31.4697 36.0548C30.4997 35.8149 31.1337 36.4714 30.5427 36.8193C30.5517 36.7689 30.6797 36.1848 30.6027 36.161C30.5257 36.1372 30.2767 36.9849 30.3107 36.876C30.3357 36.7094 30.3557 36.5437 30.3707 36.3761C30.4507 36.9785 30.1137 37.3741 30.2707 38.0149C30.1157 37.8465 29.3167 38.5771 30.3797 38.5157C30.3457 38.567 30.0597 39.1438 30.3637 39.1685C30.7017 39.1987 30.6637 38.3949 30.5307 38.5615C30.6217 38.4113 32.4927 39.6089 33.0997 39.4248C34.5849 39.5169 36.0761 39.3599 37.4997 38.9616C40.2816 38.2187 42.8657 36.9573 45.0897 35.2565C47.3507 33.6085 50.1477 31.5559 51.7517 29.333C53.1347 27.4141 50.4587 25.1647 48.4157 26.3668ZM33.2727 36.0713C33.2857 36.1628 33.2977 36.2443 33.3097 36.3313C33.1537 36.3459 33.0867 36.0328 33.2727 36.0713ZM31.6497 36.1015L31.5497 36.0731C31.5977 35.988 31.8757 35.4029 31.6497 36.1042V36.1015ZM32.7897 36.2022C32.8147 36.3395 32.7597 36.3945 32.6287 36.3615C32.6437 36.3313 32.7747 35.8928 32.7897 36.205V36.2022Z" fill="#FF4A4A"/>
<path d="M97.1856 35.9173C97.1146 35.7132 97.0386 35.5127 96.9636 35.3094C97.1586 35.4385 97.6126 34.577 96.7416 34.8517C96.7416 34.8517 96.8666 34.1641 96.6286 34.2154C96.3506 34.274 96.5366 35.0192 96.6106 34.8434C96.3876 35.6674 95.5636 35.0266 95.2816 34.6173C94.3816 33.277 93.4816 35.2481 92.3816 34.4855C92.443 34.444 92.4908 34.388 92.5199 34.3235C92.549 34.2589 92.5582 34.1883 92.5466 34.1193C92.0605 34.1673 91.5713 34.1838 91.0826 34.1687C91.2395 34.008 91.3495 33.8138 91.4026 33.6038C91.3576 33.7686 90.6956 33.2862 90.5446 33.4619C90.0716 34.0158 91.3316 33.5068 90.3446 34.1495C90.2186 34.1238 90.2316 34.0634 90.3846 33.9728C89.7846 33.7824 89.9176 33.5626 89.5396 33.1268C89.1146 32.6334 88.3446 32.9053 87.7806 32.9318C88.1271 32.8774 88.4828 32.8987 88.8186 32.9941C87.8186 33.2687 87.0186 32.7011 86.1766 32.2818C85.8136 32.0987 85.7556 31.5302 85.4766 31.6007C85.5493 31.5743 85.6078 31.5229 85.6397 31.4576C85.6717 31.3923 85.6745 31.3181 85.6476 31.2509C85.5126 31.2088 85.3476 31.3324 85.2266 31.3635C84.3966 31.5869 83.8576 31.0221 83.1586 30.5396C83.2706 30.2292 83.2016 29.961 82.8376 29.8639C82.2428 29.7705 81.7022 29.4898 81.3096 29.0702C81.3882 29.033 81.4562 28.9795 81.5083 28.914C81.5604 28.8486 81.5951 28.7729 81.6096 28.693C81.4332 28.7108 81.2673 28.7783 81.1346 28.8862C80.9786 28.7296 80.8266 28.5657 80.6806 28.4C80.9956 28.2416 80.9036 27.7097 80.4646 28.1702C80.3266 28.0054 80.1646 27.544 80.1876 27.6923C79.8017 26.9718 79.2153 26.357 78.4876 25.9098C78.1241 25.7396 77.7168 25.6637 77.3096 25.6901C76.7536 25.7212 76.6446 25.539 76.1096 25.377C76.7356 26.0224 74.9026 26.8061 74.7986 27.7674C74.6366 29.2322 76.3846 30.8802 77.3986 31.8653C79.7656 34.0463 82.6382 35.7118 85.8036 36.7386C88.1653 37.5652 90.6474 38.0677 93.1696 38.2299C94.4773 38.3668 95.8017 38.2625 97.0646 37.9233C98.5036 37.4637 98.9336 36.4483 97.1856 35.9173ZM96.8006 35.8258C96.7556 35.8167 96.7086 35.8084 96.6636 35.8002C96.7286 35.6399 96.7726 35.6427 96.8006 35.8221V35.8258ZM95.2386 34.968C95.1676 34.968 94.6156 34.7785 94.3536 34.7556C94.6576 34.6622 95.2906 34.4415 95.2386 34.9643V34.968ZM94.1166 35.0916C94.1936 35.011 94.0426 35.3763 93.9826 35.2811L94.1166 35.0916ZM94.6016 35.4092C94.5246 35.3863 94.5746 35.5383 94.6016 35.4092C94.5956 35.4221 94.5856 35.4001 94.5986 35.4056L94.6016 35.4092Z" fill="#FF4A4A"/>
<path d="M110.812 23.8683C103.451 13.1155 91.636 4.4382 78.096 1.2879C74.7949 0.511898 71.404 0.101858 67.996 0.0665919C66.1848 0.0526776 64.3746 0.151474 62.578 0.362303C61.743 0.46301 61.064 -0.0396013 60.162 0.00251267C59.35 0.0418801 58.562 0.256111 57.753 0.310126C57.513 0.65894 54.653 0.471252 54.315 0.473083C53.25 0.482238 52.188 0.445611 51.124 0.509698C50.892 0.509698 50.06 1.21099 50.37 1.42522C49.615 1.67959 48.9234 2.06998 48.336 2.57329C47.611 3.05943 46.762 3.34599 46.064 3.86875C45.592 4.22397 41.654 5.99733 42.397 4.31827C41.3955 4.64372 40.5049 5.20407 39.814 5.94332C39.029 6.99343 36.914 6.25642 35.686 6.65193C35.17 6.80756 32.914 8.03804 33.843 8.64045C34.151 8.83912 36.131 7.5345 36.775 7.47041C34.8483 8.36339 33.0622 9.4905 31.465 10.8212C31.3982 10.893 31.3143 10.9498 31.2197 10.9872C31.1251 11.0245 31.0223 11.0414 30.9194 11.0365C30.8166 11.0316 30.7163 11.0051 30.6263 10.9591C30.5364 10.913 30.4593 10.8486 30.401 10.7709C30.054 10.444 29.474 10.921 29.218 11.1151C28.477 11.6845 27.567 12.0178 27.611 13.0331C27.022 12.2787 26.242 13.2949 25.677 13.7225C25.329 13.9853 24.926 14.1857 24.564 14.4339C23.658 15.0546 23.703 15.2963 24.627 15.7971C24.007 16.3134 24.091 15.9683 23.74 15.4391C23.3344 16.3617 22.7777 17.2224 22.089 17.9916C21.809 18.2461 21.531 18.5052 21.257 18.7643C21.0775 18.7174 20.9215 18.6144 20.8161 18.4733C20.7107 18.3322 20.6626 18.1618 20.68 17.9916C19.4623 19.0599 18.3493 20.224 17.354 21.4705C16.49 22.7523 16.121 24.1466 15.136 25.3716C14.217 26.516 13.215 27.5285 12.217 28.6134C11.6734 29.1831 11.1862 29.7959 10.761 30.4445C10.576 30.943 10.3517 31.4286 10.09 31.8974C9.764 32.2636 9.32702 32.2764 9.05802 32.7543C8.79802 33.2121 8.576 33.6992 8.322 34.1651C7.7078 35.488 7.28005 36.877 7.04902 38.2987C6.70091 39.6677 6.10609 40.974 5.28901 42.1641C4.85201 42.8049 3.82401 44.0775 4.90201 44.5444C4.34001 44.4336 3.60202 46.3873 3.47202 46.7764C3.29802 47.2965 4.40003 50.9878 3.28303 50.7031C3.11303 51.9089 3.05701 53.1265 3.00001 54.3414C2.99913 54.7089 3.08654 55.0721 3.25602 55.4052C3.24102 55.9143 2.98102 56.3208 3.00202 56.7785C3.08193 59.8386 3.44994 62.8867 4.102 65.8889C5.52288 72.2305 8.05961 78.3186 11.613 83.9155C11.549 84.6781 12.677 85.6778 13.092 86.2857C13.479 86.7893 13.918 87.2635 14.258 87.7185C14.091 88.504 16.51 90.7214 17.07 91.3861C18.379 92.9242 19.8052 94.3756 21.338 95.7293C22.538 96.7941 23.821 97.7902 25.038 98.8348C26.386 99.818 26.761 101.363 27.938 102.431C28.43 102.881 29.278 104.732 30.048 103.682C30.256 103.792 34.322 105.773 34.157 105.012C34.084 104.673 31.97 103.767 31.622 103.482C32.622 104.096 33.648 104.672 34.688 105.233C35.531 105.686 35.924 106.489 36.841 106.896C37.7414 107.302 38.7135 107.559 39.712 107.653C41.096 108.242 42.504 108.774 43.898 109.332C47.6874 110.724 51.6556 111.666 55.706 112.136C63.8278 113.335 72.1329 112.979 80.097 111.092C88.3051 109.105 95.8898 105.384 102.242 100.227C108.594 95.0694 113.536 88.6201 116.672 81.3969C125.018 62.7614 122.43 40.8484 110.812 23.8683ZM117.093 64.3279C117.419 64.0185 117.721 63.5799 118.193 63.4453C117.936 65.5172 117.486 68.347 116.22 70.1982C115.804 70.8015 115.711 70.0352 115.499 71.002C115.399 71.4525 115.27 71.8938 115.134 72.3369C114.78 73.527 114.427 73.6571 115.885 73.9949C115.698 74.59 115.9 74.8655 115.185 74.6211C115.613 75.7554 114.917 76.9099 114.502 77.9747C113.182 75.403 109.292 75.2885 106.922 73.9592C103.222 71.8809 105.973 67.3427 104.463 64.2089C103.509 62.2295 101.302 61.6619 99.784 60.1733C99.1519 59.5191 98.6825 58.7471 98.408 57.9106C98.1335 57.0742 98.0605 56.1931 98.194 55.3283C100.286 55.3283 101.149 53.4579 100.394 51.8841C100.257 51.5985 98.961 50.2875 98.649 50.8002C98.341 50.7507 98.268 50.5402 97.999 50.4065C97.862 50.3369 97.66 50.7498 97.309 50.7471C97.377 50.6317 97.553 50.0357 97.709 49.9936C97.4845 50.1037 97.3054 50.2779 97.199 50.4898C96.971 50.9476 96.412 50.7407 95.922 50.7324C95.2025 50.5711 94.4525 50.5608 93.728 50.7022C91.663 50.6738 89.646 50.6775 87.608 50.8002C87.803 50.7159 87.331 50.1977 86.808 50.8569C86.246 50.8981 85.802 51.0474 85.294 50.7919C85.294 50.8221 85.394 50.0888 85.194 50.0934C85.176 50.2866 85.158 50.4779 85.133 50.6665C85.1 50.5374 85.056 50.5246 85.004 50.6308C85.047 50.4541 85.098 50.2783 85.153 50.1034C84.796 50.2765 84.791 51.0556 84.453 51.1032C83.8615 51.047 83.2644 51.0646 82.678 51.1554C82.968 50.5722 82.309 51.0583 82.135 51.1554C81.935 51.2689 81.771 51.56 81.535 51.4602C81.206 51.3211 81.035 51.3348 80.995 51.745C80.941 51.4886 80.808 50.6638 80.343 50.6702C79.706 50.6784 79.824 51.6534 79.629 50.6702C79.461 50.9348 79.159 51.6873 78.674 51.6251C78.6929 51.4227 78.6757 51.219 78.623 51.0217C78.509 51.2231 78.4291 51.4392 78.386 51.6626C77.443 51.7962 77.697 52.2275 77.876 52.9864C77.815 52.7914 77.689 52.1954 77.476 52.092C77.391 52.0508 77.643 53.067 77.588 52.8463C77.518 52.6852 77.441 52.5278 77.36 52.3712C77.56 52.8967 77.8 52.9636 77.46 53.4405C77.3276 53.6324 77.2613 53.8563 77.2698 54.0831C77.2784 54.31 77.3614 54.5291 77.508 54.7122C78.372 55.7925 81.254 55.6479 82.539 55.6341C82.521 55.6506 81.803 56.2658 82.285 56.2567C82.258 56.318 82.679 57.9458 82.016 57.3882C81.916 57.7142 82.27 57.846 81.964 58.0291C81.817 58.1207 81.071 58.67 81.732 58.691C81.832 58.691 81.932 58.3148 81.955 58.2974C81.803 58.6379 81.431 59.6889 81.623 59.7832C81.312 59.7384 81.088 60.4598 82.023 60.3637C82.088 60.9029 80.953 60.0543 81.623 60.7455C81.755 60.8856 82.051 61.3735 81.476 61.1227C81.64 61.7837 82.212 62.0382 82.392 62.6315C82.5191 63.0686 82.743 63.4772 83.05 63.8317C83.33 64.0853 84.416 64.9962 84.55 64.8763C84.202 65.2645 85.231 65.4494 85.1 65.2361C85.052 65.1583 84.678 64.7884 84.606 64.8278C84.941 64.5577 85.576 65.8184 85.647 65.8687C85.828 65.9951 86.92 66.5837 86.913 66.559C86.9576 66.7937 87.0928 67.0059 87.294 67.1569C87.3587 67.0959 87.4073 67.0223 87.4363 66.9415C87.4652 66.8608 87.4737 66.775 87.461 66.6909C87.977 67.1871 87.91 67.5148 88.139 68.1465C88.4633 68.9821 88.47 69.8934 88.158 70.7329C88.096 70.9783 88.015 71.7866 87.712 71.8745C87.791 71.8516 87.285 72.0988 87.298 72.1345C87.311 72.1702 87.517 72.8294 87.498 72.8486C87.5096 72.7678 87.5441 72.6911 87.598 72.6262C87.458 73.0839 87.03 73.0583 87.085 73.5865C87.115 73.8832 87.02 73.9152 86.857 74.1478C86.694 74.3803 86.97 74.5021 87.137 74.5744C87.0788 74.8326 87.0623 75.0973 87.088 75.3599C86.741 75.1539 86.674 75.7591 86.822 75.7756C87.096 75.3517 87.486 76.7552 87.753 77.0802C87.6541 77.1634 87.5232 77.2075 87.389 77.2029C87.518 77.391 87.6618 77.5703 87.819 77.7394C88.265 76.974 88.563 78.1715 88.774 78.2814C88.967 78.3839 90.449 78.6476 90.104 79.1282C90.346 79.1694 91.489 79.5081 91.404 79.6226C91.8026 79.7246 92.1939 79.8487 92.576 79.9943C92.5259 80.0296 92.4815 80.0712 92.444 80.1179C92.524 80.1572 92.576 80.1271 92.599 80.0263C92.478 80.4768 93.199 79.9458 93.199 80.4099C93.8434 80.5654 94.4375 80.8606 94.931 81.2705C96.472 82.6356 96.648 84.7202 96.687 86.5714C96.5872 88.682 97.0988 90.7793 98.17 92.6505C98.227 92.6276 98.783 94.2233 99.122 94.3039C99.283 94.3405 100.336 95.1691 100.163 94.8047C100.413 94.9924 101.001 95.1947 100.987 95.559C101.003 95.169 101.665 95.6955 101.82 95.7632C100.726 96.5789 99.972 97.6519 98.961 98.5391C97.7541 99.4169 96.4731 100.206 95.13 100.898C95.3172 101.084 95.4934 101.279 95.658 101.482C95.206 101.767 94.819 102.214 94.49 101.95C94.545 103.097 90.19 103.612 89.273 103.932C88.324 104.301 87.3982 104.718 86.5 105.181C86.137 105.351 85.536 105.469 85.6 105.96C85.676 106.549 85.542 106.396 84.945 106.601C84.698 105.925 84.823 105.814 84.057 105.99C83.328 106.158 83.346 106.35 83.016 106.924C82.8473 107.194 82.577 107.399 82.2555 107.5C81.9341 107.601 81.5834 107.592 81.269 107.474C80.869 107.345 80.808 106.97 80.308 107.265C80.5721 107.428 80.8265 107.605 81.07 107.793C80.2806 108.083 79.4509 108.27 78.605 108.35C78.405 107.633 77.75 107.903 77.239 108.127C77.0605 108.23 76.8673 108.31 76.665 108.364C76.254 108.419 76.344 107.957 76.034 108.004C75.567 108.069 75.103 108.136 74.634 108.202C74.924 108.366 75.217 108.521 75.516 108.669C74.933 108.906 75.894 108.944 74.833 109.108C74.5402 108.923 74.1907 108.828 73.8352 108.838C73.4797 108.847 73.1367 108.96 72.856 109.16C71.605 109.86 69.468 109.725 68.012 109.784C68.047 109.587 68.0937 109.392 68.152 109.199C66.913 109.345 65.775 108.795 64.552 108.792C64.8321 109.075 64.9902 109.441 64.997 109.823C62.9292 109.802 60.8645 109.672 58.813 109.434C58.843 109.376 58.857 109.313 58.8539 109.249C58.8508 109.186 58.8307 109.124 58.7954 109.069C58.76 109.014 58.7105 108.968 58.6512 108.935C58.5918 108.901 58.5245 108.882 58.455 108.878C57.741 108.747 58.062 109.534 57.272 109.02C56.567 108.562 56.293 108.14 55.35 107.947C54.893 107.849 53.687 107.417 53.404 107.838C52.77 108.791 50.726 107.801 50.104 107.349C49.891 108.047 49.316 107.724 49.504 106.983C48.6986 106.704 47.8712 106.482 47.029 106.318C46.574 106.168 46.029 105.444 45.482 105.634C45.2575 105.758 45.0764 105.937 44.96 106.152C44.468 105.969 43.968 105.8 43.478 105.61C42.895 105.335 42.278 105.115 41.678 104.862C40.778 104.477 40.678 103.779 39.942 103.281C39.3197 102.964 38.6682 102.698 37.995 102.485C37.736 102.382 35.731 102.736 36.812 101.976C35.866 101.529 34.89 101.129 33.962 100.647C33.0555 100.239 32.2412 99.6777 31.562 98.9932C30.107 97.6647 28.374 97.0999 26.932 95.9271C27.081 95.8209 27.332 95.7705 27.169 95.581C27.169 95.581 27.531 95.2368 27.557 95.2148C27.849 95.6442 28.021 94.3405 28.057 94.3295C27.957 94.3606 27.887 94.4586 27.819 94.5282L28.447 93.533C28.98 94.1739 28.64 93.6301 29.167 93.2016C29.524 92.9269 28.957 92.9269 29.067 92.7383C29.123 92.6358 29.458 92.992 29.467 93.0057C30.037 92.7759 29.582 91.4557 30.102 91.5408C30.55 91.6031 30.556 91.1142 30.519 90.8615C30.59 90.9064 30.656 90.9531 30.724 90.9979C30.938 90.5869 31.434 89.8645 31.173 89.577C31.31 89.7299 31.564 89.2832 31.534 89.1413C31.626 88.8794 31.091 89.0662 31.034 88.7915C31.3483 88.669 31.6199 88.4698 31.819 88.2157C31.559 88.1818 31.438 88.028 31.261 87.9676C32.118 88.1818 31.654 87.6819 31.985 87.3001C31.7764 87.3112 31.5707 87.351 31.375 87.4182C31.3629 87.319 31.3795 87.2186 31.423 87.1271C31.594 87.2086 31.84 87.1555 32.008 87.2406C32.047 87.0117 32.079 86.7829 32.099 86.5512C32.011 86.5898 31.9114 86.6 31.8163 86.5802C31.7212 86.5604 31.6362 86.5118 31.575 86.4423C31.7502 86.407 31.9319 86.4092 32.106 86.4487C32.1195 86.2253 32.1152 86.0014 32.093 85.7785C31.776 85.9131 31.528 85.99 31.493 85.6073C31.593 85.7813 31.783 85.806 32.084 85.6778C32.075 85.2842 32.106 84.831 31.575 85.0306C31.6338 84.9882 31.6788 84.9319 31.7051 84.8677C31.7313 84.8035 31.7378 84.734 31.7239 84.6667C31.71 84.5993 31.6761 84.5368 31.6261 84.4859C31.576 84.4349 31.5117 84.3976 31.44 84.3778C30.887 84.2725 32.197 83.6967 31.468 83.5264C31.4012 83.6252 31.3061 83.7053 31.193 83.758C31.111 83.3835 31.293 82.7326 31.206 82.4763C31.1541 82.3614 31.1123 82.2429 31.081 82.122C30.661 82.2355 30.781 81.0361 30.775 80.7139C30.768 79.3406 31.193 76.248 32.855 75.8616L32.703 75.7856C32.8731 75.6358 33.0535 75.4961 33.243 75.3672C33.667 75.0843 33.615 75.4789 34.137 75.2446C33.518 74.8783 34.885 74.6605 34.928 74.568C35.819 74.9589 35.428 74.0828 36.084 74.1661C36.0781 74.1371 36.0643 74.1099 36.044 74.087C36.0236 74.0641 35.9973 74.0462 35.9675 74.035C35.9377 74.0238 35.9052 74.0196 35.8732 74.0229C35.8411 74.0261 35.8105 74.0366 35.784 74.0535C35.884 73.9894 37.153 74.1679 36.669 73.5289C37.545 73.4446 38.169 71.8288 37.759 71.7198C38.739 71.1897 37.508 70.8043 37.478 70.3264C37.6519 70.3956 37.8377 70.4365 38.027 70.4472C37.951 69.9977 36.572 69.3953 37.727 69.1097C37.702 69.16 37.675 69.215 37.65 69.2681C38.318 69.1683 36.122 68.5466 37.659 68.7819C36.954 68.4999 36.786 67.8929 36.659 67.0928C36.4777 66.4517 36.3414 65.8007 36.251 65.1436C35.964 65.1052 36.685 64.3755 36.623 64.4231C36.663 64.3902 36.474 64.0679 36.895 63.9571C37.12 63.8976 37.325 63.5781 37.417 63.4078C37.502 63.5341 38.387 62.8237 38.158 62.4007C38.464 62.5765 38.585 62.2506 38.573 62.0345C39.2209 61.8155 39.8265 61.5034 40.367 61.1098C40.31 61.0732 40.001 61.0101 40.167 60.859C40.337 60.7803 40.423 60.8444 40.43 61.0494C40.8693 60.6692 41.2709 60.2541 41.63 59.8089C41.2858 59.7507 40.9604 59.622 40.678 59.4326C40.778 59.2852 41.578 59.7118 41.67 59.7677C41.9995 59.2905 42.1694 58.7355 42.159 58.171C41.859 58.2049 41.559 58.2296 41.251 58.2379C41.227 57.9064 41.958 58.0548 42.159 58.1042C42.189 57.7105 42.28 56.914 41.692 57.0541C41.7069 57.0275 41.7274 57.0038 41.7524 56.9845C41.7773 56.9651 41.8062 56.9505 41.8374 56.9415C41.8685 56.9325 41.9014 56.9292 41.9339 56.9319C41.9665 56.9345 41.9981 56.9431 42.027 56.9571C42.006 56.8655 41.985 56.7803 41.966 56.6915C41.7616 56.7249 41.564 56.7867 41.38 56.8746C41.37 56.35 42.069 56.9973 41.861 56.3253C41.767 56.3693 41.672 56.4169 41.577 56.4645C41.355 56.3729 41.819 56.3244 41.861 56.3253C41.744 55.9591 41.641 55.5792 41.561 55.2029C43.7248 55.2148 45.8868 55.0873 48.031 54.8211C50.176 54.5144 49.086 52.3492 50.131 51.7596C48.856 51.8237 50.031 50.2435 48.531 50.0394C47.988 49.9643 48.274 50.314 47.722 49.8654C47.622 49.7849 47.322 49.5139 47.158 49.6823C46.713 50.1547 47.699 50.3744 46.506 50.1071C46.661 49.9515 46.893 49.2914 47.12 49.2392C46.8414 49.3409 46.6086 49.5258 46.459 49.7638C46.117 50.2948 44.91 49.8197 44.259 49.7748C44.359 49.643 44.351 49.1824 44.179 49.0936C43.938 48.9645 43.951 49.621 44.127 49.762C41.019 49.5725 38.005 50.1337 34.996 50.4285C35.387 50.3058 34.74 49.805 34.147 50.5099C33.5783 50.6478 32.9791 50.6399 32.415 50.4871C32.415 50.5035 32.521 49.7812 32.299 49.794C32.283 49.9863 32.262 50.1794 32.237 50.369C32.197 50.2408 32.145 50.2298 32.087 50.3378C32.136 50.1547 32.187 49.9808 32.252 49.805C32.0579 49.9622 31.9039 50.1566 31.801 50.3745C31.257 51.3138 31.77 50.488 31.28 50.6399C30.733 50.8102 29.914 50.7315 29.419 50.9247C29.8 50.2994 28.619 50.9824 28.479 51.0693C28.141 51.2708 28.265 51.203 27.857 51.0995C27.164 50.9265 28.216 51.4456 27.463 51.4456C27.412 51.138 27.286 50.2719 26.728 50.3699C26.128 50.4779 26.128 51.1938 26.035 50.314C25.795 50.5969 25.389 51.2771 24.867 51.1691C24.9198 50.9718 24.932 50.7672 24.903 50.5658C24.869 50.488 24.564 51.0995 24.546 51.1774C23.539 51.2103 23.674 51.6013 23.732 52.4426C23.699 52.2522 23.655 51.6251 23.458 51.5152C23.366 51.4621 23.449 52.4902 23.433 52.2769C23.384 52.1112 23.333 51.9436 23.271 51.777C23.943 52.4252 23.28 53.2858 23.458 53.9267C23.758 55.0152 26.38 55.4656 27.358 55.6002C26.658 58.4072 22.658 58.4384 21.444 60.8736C20.23 63.3089 22.703 66.0161 21.432 68.3974C20.001 71.0808 14.565 70.3639 14.276 73.9821C14.042 76.887 16.783 80.4163 15.2 83.1959C13.138 80.1463 11.021 76.7955 10.118 73.2918C9.15202 69.5528 7.31102 65.6069 6.73902 62.0254C6.62102 61.2929 6.19402 60.1174 6.73902 59.6066C7.02902 59.3319 6.96801 58.5171 6.88901 58.1774C6.73901 57.5292 5.813 57.9339 6.602 57.0037C7.532 55.9097 6.22602 55.8969 6.23502 55.0601C6.24502 54.3084 6.05401 53.0459 6.60401 52.5406C7.0261 51.9138 7.23755 51.1873 7.21201 50.4513C7.42503 49.255 7.5294 48.0445 7.52402 46.8323C7.68059 46.9251 7.85101 46.9966 8.03001 47.0447C8.16501 46.391 7.645 46.391 7.753 45.9003C7.826 45.5908 7.914 45.5561 8.266 45.524C8.33133 45.248 8.3602 44.9659 8.352 44.6836C8.53915 42.6413 9.04636 40.6344 9.85801 38.7245C12.0088 33.9717 14.9034 29.5306 18.451 25.541C17.746 25.4824 18.503 25.0475 18.751 24.7563C18.946 25.5126 19.697 24.1924 20.051 23.8207C20.731 23.1029 21.429 22.3961 22.168 21.7324C23.6488 20.4063 25.2057 19.1533 26.832 17.9788C26.4799 17.8997 26.1365 17.7912 25.806 17.6547C26.047 17.4542 26.288 17.261 26.53 17.066C26.7537 17.281 26.9484 17.5199 27.11 17.7773C30.01 15.8666 32.722 13.7326 35.71 11.9409L34.874 11.4071C35.128 11.2643 35.386 11.127 35.646 10.9888C35.784 11.2323 35.923 11.4776 36.063 11.7212C38.0586 10.4241 40.1655 9.27687 42.363 8.29072C42.3003 8.18451 42.238 8.07679 42.176 7.96754L42.863 7.68556C42.887 7.72423 42.902 7.76699 42.9071 7.8112C42.9123 7.85541 42.9074 7.90011 42.8929 7.94253C42.8784 7.98495 42.8544 8.02419 42.8226 8.05778C42.7908 8.09138 42.7518 8.11862 42.708 8.13782C43.114 7.95471 44.562 7.54823 44.19 7.19941C44.416 7.11793 44.932 6.72518 44.845 7.16646C47.4143 6.11656 50.0822 5.28186 52.816 4.67258C53.7712 4.38255 54.7935 4.3304 55.778 4.52151C56.9035 4.68699 58.0466 4.7294 59.183 4.64786C61.261 4.70736 63.343 4.68081 65.421 4.76047C66.373 4.79617 69.186 5.4114 69.371 4.47207C69.657 4.45285 69.64 4.73483 70.271 4.65518C71.0791 4.56892 71.8964 4.5871 72.699 4.7092C72.5709 4.87679 72.4569 5.05309 72.358 5.23654C72.7314 5.26767 73.1017 5.31527 73.469 5.37935C73.4168 5.20386 73.4294 5.01749 73.505 4.84927C75.1655 5.38346 76.9247 5.61245 78.682 5.5231C79.5755 5.39795 80.4892 5.4882 81.333 5.78494C82.361 6.0779 83.3777 6.40474 84.383 6.76546C84.0734 6.88946 83.7529 6.98931 83.425 7.06392C84.9356 7.40843 86.3899 7.93422 87.75 8.62762C88.4428 9.02999 89.0921 9.49198 89.689 10.0073C90.454 9.68597 90.644 9.56604 91.352 9.96246C91.176 10.3085 90.674 10.4321 90.352 10.6152C90.978 11.22 91.7101 11.7247 92.518 12.1084C93.1022 12.3688 93.7073 12.588 94.328 12.764C95.839 13.4002 97.107 14.4119 98.645 15.0033C99.545 15.7513 99.245 15.8209 99.237 16.8206C99.237 17.5219 99.95 17.5888 100.506 17.7233C100.574 17.7426 100.506 18.4265 100.762 18.6947C101.094 19.0472 101.423 19.3987 101.753 19.7475C102.167 19.1067 102.564 19.656 103.001 19.8977C102.726 19.9947 102.449 20.0909 102.171 20.1852C104.361 22.5329 106.344 25.0358 108.102 27.6705C108.568 27.274 108.928 27.3885 108.602 27.9387C108.293 28.4633 109.228 29.4191 109.544 29.9529C109.71 30.3117 109.896 30.6622 110.102 31.003C110.571 31.6283 111.158 30.4244 111.353 30.2651C111.634 30.7567 111.903 31.2529 112.168 31.75C112.047 31.8922 111.973 32.0631 111.954 32.2426C111.935 32.4221 111.973 32.6028 112.062 32.7635C112.434 33.788 112.247 34.9076 112.681 35.9202C112.836 34.6614 114.686 35.2638 113.881 36.5382C113.36 37.3622 113.29 37.8501 114.113 38.4937C114.98 39.1749 114.888 40.2781 114.885 41.2193C115.254 40.9347 115.589 40.6152 115.885 40.2662C116.013 40.6516 116.139 41.0371 116.26 41.4225L114.96 41.612C115.426 42.9166 115.66 44.2789 115.989 45.6147C116.422 45.4551 116.874 45.3423 117.335 45.2787C117.493 45.9607 116.994 46.5604 116.14 46.1869C116.403 47.4466 116.567 48.7229 116.796 49.9881C117.067 49.7931 117.396 49.3601 117.79 49.3939C118.39 49.4553 118.238 50.4697 118.29 50.932C117.799 50.8883 117.322 50.7603 116.883 50.5548C116.962 52.068 117.142 53.5753 117.422 55.0683C117.814 55.0322 118.198 54.937 118.556 54.7864C118.296 55.0931 118.421 55.4757 118.218 55.7934C118.015 56.1111 117.618 56.0168 117.666 56.4855C117.657 57.4164 117.934 58.3308 118.466 59.1241C118.616 59.2715 118.484 60.0094 118.466 60.2135C118.406 61.1346 118.234 60.4955 117.636 60.9368C117.283 61.4325 117.052 61.9923 116.958 62.5778C116.864 63.1632 116.91 63.7603 117.093 64.3279ZM110.03 86.315C110.468 85.6711 110.97 85.0655 111.53 84.506C111.13 85.2485 110.907 86.0459 110.03 86.315ZM112.636 82.3298C112.352 82.0506 112.001 81.8327 111.696 81.5681C111.183 82.6347 110.524 83.6371 110.016 84.6991C109.524 85.7291 109.363 86.825 108.769 87.8238C108.431 88.3905 106.92 89.8709 107.353 90.3287C107.853 90.8624 105.995 92.5717 105.519 93.1055C105.745 92.5679 105.893 92.0056 105.959 91.4328C105.45 92.0014 104.977 92.5962 104.543 93.2144C104.32 93.5193 104.088 93.8205 103.843 94.1135C103.367 93.8809 102.911 93.6148 102.48 93.3178C101.44 92.6086 100.642 91.6429 100.18 90.5338C99.28 88.3301 99.595 85.8646 99.273 83.5621C99.2358 82.6651 98.9356 81.7937 98.4041 81.0394C97.8726 80.2851 97.1293 79.6756 96.252 79.2747C94.495 78.3363 92.452 77.7 90.928 76.4366C89.128 74.9314 89.955 73.4044 90.677 71.599C91.3379 70.269 91.4791 68.7714 91.077 67.3574C90.428 65.6591 88.499 64.4506 87.05 63.3437C85.86 62.4337 84.912 61.7068 84.61 60.2612C84.3635 58.9455 84.4435 57.596 84.844 56.3125C85.119 55.386 85.344 55.4995 86.364 55.4437C87.454 55.3823 88.551 55.3521 89.644 55.321C91.867 55.2706 94.091 55.2743 96.313 55.31C95.9961 56.0227 95.8525 56.7899 95.892 57.5585C95.892 57.8524 95.411 58.0337 95.763 58.4823C95.9281 58.8596 95.9876 59.2687 95.936 59.6725C95.771 59.8171 96.567 61.022 96.716 60.9377C96.548 61.0586 96.845 61.3781 97.033 61.3204C97.084 61.3058 96.868 60.8782 96.765 60.9121C96.478 61.0595 98.46 62.1819 98.445 62.1544C98.545 62.3192 98.609 62.3183 98.833 62.5115C98.8628 62.4592 98.8791 62.4013 98.8809 62.3423C98.8826 62.2833 98.8697 62.2247 98.843 62.1709C99.346 62.4843 99.8047 62.8533 100.209 63.2696C100.148 63.2311 100.84 63.5012 100.788 63.6669C101.718 64.3032 101.804 64.4661 101.888 65.3432C101.878 65.2324 102.424 65.6105 102.394 65.5263C102.34 65.4074 102.295 65.285 102.26 65.1601C102.525 65.5986 103.432 68.5668 103.047 68.6116C103.019 69.301 102.696 70.1552 102.754 70.5947C103.141 70.6615 102.514 71.0268 102.519 71.1055C102.528 71.208 102.785 71.3802 102.79 71.4772C102.466 71.4772 102.478 71.4772 102.446 71.6905C102.721 71.6292 102.846 71.6905 102.831 71.8736C102.449 72.0567 102.66 71.9524 102.414 71.8965C102.395 72.0164 102.347 72.2059 102.714 72.3131C102.394 72.3131 102.289 72.4394 102.4 72.6894C103.111 72.4074 103.38 73.6845 103.743 74.102C104.49 74.8693 105.433 75.4555 106.488 75.8085C108.588 76.6325 111.168 77.1818 112.397 79.131C111.907 78.6393 112.189 79.1639 112.184 79.2417C112.165 79.228 111.512 78.6155 111.512 78.6155C112.086 78.3409 111.591 78.5011 111.301 78.1019C111.082 77.8062 111.094 78.2438 110.922 78.1413C111.022 78.1999 111.129 77.8099 110.788 77.6322C110.724 77.7394 109.955 77.4839 109.97 77.5462C109.888 77.1553 109.879 77.0994 109.446 77.1543C109.48 77.1104 109.516 77.0628 109.546 77.0207C109.597 77.0408 108.214 76.4311 108.423 76.7332C108.197 76.4036 108.088 76.4402 107.95 76.7927C107.611 76.7671 107.85 76.4128 107.422 76.2892C107.38 76.4476 107.26 76.5318 107.203 76.6435C107.392 76.1454 107.003 76.3807 106.764 76.1262C106.709 77.2349 107.179 76.0841 107.541 76.8101C107.76 77.2459 108.704 77.3484 108.926 76.8778C108.83 77.0161 108.746 77.1605 108.673 77.31C108.981 77.4931 109.228 77.4766 109.402 77.2019C109.151 77.6789 109.802 77.8501 110.249 77.8501C110.381 77.8501 111.817 79.5567 111.894 79.5145C111.922 79.4468 111.925 79.3723 111.901 79.3031C111.977 79.3469 112.041 79.4061 112.088 79.4761C112.135 79.546 112.164 79.6249 112.172 79.7067C112.181 79.7885 112.169 79.871 112.137 79.9478C112.105 80.0246 112.055 80.0938 111.989 80.1499C112.089 80.1473 112.187 80.1241 112.276 80.0822C112.264 80.1206 112.203 81.4179 112.083 81.3694C112.212 81.297 112.314 81.1895 112.373 81.0618C112.255 81.2212 112.158 81.3927 112.083 81.5727C112.223 81.8913 112.842 80.3632 112.857 80.1353C112.936 80.3889 113.013 80.6846 113.335 80.7578C113.117 81.2842 112.887 81.8116 112.64 82.3325L112.636 82.3298ZM87.389 66.6213C87.254 66.5993 87.12 66.5764 86.989 66.559L87.17 66.3979L87.389 66.6213ZM86.708 66.191L86.815 65.9511C87.174 66.2322 86.957 66.2477 86.712 66.1937L86.708 66.191ZM78.48 51.6479C78.498 51.5454 78.615 50.8862 78.615 51.6287L78.48 51.6479ZM79.87 51.6836C79.8931 51.5804 79.929 51.48 79.977 51.3843C79.952 51.4154 80.093 52.0874 79.944 52.146C79.922 51.9949 79.898 51.8393 79.873 51.6855L79.87 51.6836ZM80.254 51.8869C80.315 51.6122 80.345 51.6516 80.346 52.0123C80.258 52.0645 80.23 52.0233 80.257 51.8915L80.254 51.8869ZM80.454 51.4767C80.516 51.43 80.579 51.3852 80.643 51.3403C80.491 51.4795 80.943 51.8283 80.624 51.9272C80.587 51.7862 80.693 51.4621 80.453 51.4786L80.454 51.4767ZM82.572 56.1386C82.2747 56.1221 82.3227 56.0189 82.716 55.8291C82.668 55.9362 82.621 56.036 82.571 56.1404L82.572 56.1386ZM82.102 58.2617C81.958 58.1802 82.115 58.1884 82.102 58.2617V58.2617ZM82.002 58.9675C82.015 58.7643 82.021 58.9675 82.002 58.9675V58.9675ZM83.682 63.2988C83.863 63.4023 83.862 63.4609 83.675 63.482C83.561 63.4398 83.565 63.3794 83.686 63.3007L83.682 63.2988ZM84.154 63.7823C84.12 63.8527 84.188 63.8134 84.154 63.7823V63.7823ZM88.145 67.5359C88.3 67.6943 88.307 67.8206 88.161 67.9177C87.973 67.7584 87.967 67.6302 88.149 67.534L88.145 67.5359ZM99.523 62.582C99.696 62.6205 99.742 62.7074 99.663 62.8365C99.475 62.7862 99.43 62.7019 99.53 62.5802L99.523 62.582ZM98.598 62.0199L98.786 62.1435C98.43 62.2195 98.63 62.1197 98.601 62.018L98.598 62.0199ZM98.284 61.8267C98.476 61.8734 98.491 61.9301 98.333 61.9942C98.243 61.9567 98.225 61.9008 98.287 61.8239L98.284 61.8267ZM112.73 79.8972C112.697 79.8222 112.666 79.7471 112.63 79.6702C112.87 79.6702 113.03 80.0749 112.736 80.0886C112.742 80.0248 112.74 79.9606 112.73 79.8972ZM112.61 79.5658C112.589 79.4962 112.571 79.4267 112.553 79.3562C112.703 79.4798 112.722 79.5493 112.614 79.5658H112.61ZM24 52.5955C24.228 52.7081 24.37 52.6047 24.025 52.8436C24.016 52.7603 24.009 52.6788 24 52.5955ZM24.681 51.1682C24.72 51.0766 24.947 50.4257 24.834 51.1682H24.681ZM26.224 51.3421C26.2598 51.2409 26.311 51.1448 26.376 51.0565C26.363 51.0648 26.419 51.7523 26.257 51.7944C26.246 51.6434 26.23 51.4923 26.224 51.3421ZM26.638 51.5719C26.599 51.918 26.681 50.9997 26.638 51.5719V51.5719ZM26.9 51.1664C26.971 51.1243 27.049 51.0803 27.125 51.0382C26.93 51.1719 27.388 51.4603 27.033 51.5573C27.011 51.3815 27.159 51.159 26.9 51.1664ZM41.421 57.3544C41.5067 57.3589 41.5912 57.3746 41.672 57.4011C41.513 57.4011 41.498 57.5192 41.385 57.5714C41.3673 57.5359 41.3613 57.4965 41.3677 57.458C41.3741 57.4194 41.3926 57.3834 41.421 57.3544ZM40.63 59.8565C40.587 59.7329 40.205 60.1687 40.572 59.6267C40.592 59.6999 40.61 59.7759 40.63 59.8565ZM37.63 71.1907C37.507 71.1787 37.53 71.1339 37.63 71.1907V71.1907ZM36.282 73.6982C36.282 73.7422 36.257 73.7605 36.215 73.7514C36.2399 73.7345 36.263 73.7155 36.284 73.6946L36.282 73.6982ZM28.482 56.7428C28.731 56.9378 28.467 56.8847 28.269 56.8517C28.2746 56.8313 28.2845 56.8122 28.2983 56.7954C28.3121 56.7786 28.3295 56.7644 28.3493 56.7538C28.3692 56.7433 28.3912 56.7364 28.4139 56.7337C28.4367 56.7311 28.4599 56.7326 28.482 56.7382V56.7428ZM24.223 65.4814C24.275 65.6151 24.323 65.4457 24.223 65.4814C24.239 65.4705 24.23 65.4979 24.223 65.4769V65.4814ZM20.013 71.9972C20.699 71.9835 21.188 71.4479 21.855 71.4241L21.748 71.349C22.209 71.1659 22.639 71.1421 23.035 70.9581C22.383 70.656 23.735 70.3969 23.643 70.4518C23.8288 70.3778 24.0022 70.2801 24.158 70.1616C24.358 69.9693 23.898 69.832 24.409 69.6425C24.346 69.5802 24.288 69.572 24.236 69.6114C24.6724 69.1914 24.9171 68.6346 24.92 68.055C24.895 67.806 24.765 66.2322 24.48 66.1809C24.205 65.4073 24.13 65.2956 23.897 64.5751C23.5693 63.7425 23.5185 62.8396 23.751 61.9805C23.781 61.889 24.179 60.9002 24.403 61.1346C24.437 61.1016 24.948 60.5257 24.909 60.3435C25.4386 59.9474 26.0033 59.5922 26.597 59.2815C26.558 59.2486 26.328 59.1689 26.472 59.0701C26.612 59.0252 26.672 59.0847 26.654 59.244C27.014 58.9999 27.3783 58.7594 27.747 58.5226C27.604 58.4576 27.192 58.2955 27.354 58.1207C28.043 58.6169 28.23 58.2443 28.666 57.5714C28.444 57.4871 28.224 57.3974 28.01 57.2967C28.174 57.0458 28.532 57.4331 28.694 57.5256C28.926 57.1438 29.236 56.8756 28.822 56.6412C29.084 56.5387 29.094 56.8847 29.163 56.4791C28.613 56.4206 28.47 56.4507 28.572 55.9985C28.712 56.2731 29.106 56.7639 29.216 56.167C29.131 56.1724 29.046 56.1789 28.963 56.1834C28.84 56.058 29.182 56.1532 29.216 56.167C29.36 55.419 30.576 55.7348 31.337 55.69C32.218 55.6424 33.094 55.5636 33.969 55.4812C35.769 55.3119 37.575 55.2432 39.387 55.2212C39.496 57.7938 37.48 59.7677 35.739 61.563C34.971 62.3531 33.818 63.2531 33.778 64.3957C33.729 65.7689 34.389 66.917 34.772 68.2079C36.232 73.1517 29.849 73.1114 28.186 76.7881C27.06 79.2747 28.324 81.5617 28.766 84.0391C29.0325 85.3983 28.9916 86.7932 28.6457 88.1374C28.2998 89.4816 27.6563 90.7465 26.755 91.8539C26.084 92.6697 25.123 94.4174 24.082 93.4543C22.905 92.3676 21.772 91.2415 20.693 90.0723C21.377 89.5789 18.563 87.6316 18.393 87.4256C19.439 87.6233 18.563 86.8763 18.149 86.5906C18.021 86.589 17.8951 86.6208 17.786 86.6822C17.479 86.2967 17.186 85.9049 16.886 85.5112C17.02 85.4444 17.314 85.3748 17.186 85.2073C17.21 85.1853 17.494 84.9399 17.544 84.8969C17.694 85.1368 18.094 84.3851 18.001 84.1169C17.949 83.9658 17.674 84.3842 17.751 84.2936C17.8718 83.9884 17.9687 83.6757 18.041 83.3579C18.63 83.7012 18.246 83.3579 18.441 82.869C18.608 82.5394 18.175 82.7317 18.206 82.5596C19.064 82.263 18.271 82.1073 18.176 81.3859C18.549 81.124 18.445 80.962 18.176 80.713C18.242 80.713 18.31 80.7075 18.376 80.7066C18.389 80.7661 18.023 79.2482 17.876 79.6199C17.904 79.5439 17.988 78.8966 17.626 79.2115C17.567 79 17.674 78.6979 17.598 78.5194C17.582 78.5194 17.507 78.6109 17.464 78.6265C16.844 76.1024 16.773 73.2789 20.013 71.9936V71.9972ZM30.573 89.989C30.707 90.0623 30.838 90.1364 30.973 90.2069C30.594 90.0962 30.705 90.0962 30.458 89.9552C30.492 89.794 30.53 89.8023 30.572 89.9854L30.573 89.989ZM27.511 94.5218C27.511 94.5218 27.371 94.7278 27.335 94.6976L27.511 94.5218ZM30.164 90.5914C30.264 90.6647 30.364 90.7388 30.464 90.813C30.305 90.8075 30.09 90.7489 30.163 90.5869L30.164 90.5914ZM20.458 89.8169C20.001 89.5972 19.934 89.4113 20.258 89.2612C20.33 89.4415 20.392 89.6283 20.458 89.8123V89.8169ZM16.935 84.8292C16.804 84.8484 16.911 84.8173 16.935 84.8292V84.8292ZM17.542 84.1453C17.528 84.2687 17.4854 84.3879 17.417 84.495C17.4077 84.484 17.3957 84.475 17.382 84.4689C17.3683 84.4627 17.3533 84.4596 17.338 84.4596C17.3228 84.4596 17.3077 84.4627 17.294 84.4689C17.2804 84.475 17.2684 84.484 17.259 84.495C17.354 84.3714 17.446 84.2551 17.542 84.1407V84.1453ZM18.067 80.7432C18.06 80.7267 18.167 80.6754 18.067 80.7432V80.7432ZM17.929 80.2232C17.913 80.1646 18.191 79.9851 17.929 80.2232V80.2232ZM16.721 84.9839C16.55 85.1239 16.731 85.026 16.721 84.9839V84.9839ZM46.753 6.32967C46.902 6.54482 46.762 6.32967 46.894 6.28572C46.83 6.50545 46.794 6.30861 46.752 6.32143L46.753 6.32967ZM103.672 19.7347L103.337 19.8052C103.422 19.4823 103.533 19.4561 103.671 19.7265L103.672 19.7347ZM106.982 23.6532L106.027 23.9516C106.185 23.6412 106.338 23.3281 106.485 23.0086C106.653 23.2174 106.816 23.4307 106.981 23.6449L106.982 23.6532ZM54.349 1.31445C53.5317 1.39033 52.7226 1.52781 51.93 1.72551C51.958 1.63121 51.9459 1.5307 51.8962 1.44423C51.8465 1.35776 51.7628 1.29175 51.662 1.25951C52.557 1.20641 53.453 1.31353 54.349 1.30346V1.31445ZM37.034 7.44844C37.253 7.43379 37.47 7.41822 37.689 7.40449C37.004 7.72584 37.504 7.47773 37.03 7.43561L37.034 7.44844Z" fill="#FF4A4A"/>
<path d="M76.6465 79.7215C76.6565 79.5064 76.5545 78.426 76.0125 78.9085C75.6532 78.1777 75.2178 77.4802 74.7125 76.8257C74.7759 76.8874 74.86 76.928 74.9515 76.9411C74.9385 76.7882 74.1925 76.1665 74.0615 76.0146C74.5365 75.5376 73.5945 74.9928 73.2095 74.8592C72.6275 74.655 71.1005 72.1126 70.6705 72.6729C70.7705 72.5521 71.4095 73.5674 71.4095 73.5674C70.7037 73.1964 70.0216 72.7889 69.3665 72.347C70.3325 71.7446 68.3085 71.2749 68.2065 71.2191C67.9058 70.9875 67.5184 70.8723 67.1265 70.8977C66.7385 70.9554 65.6735 71.7739 65.8795 70.959C65.8975 70.9655 64.4465 70.5672 64.4585 70.602C64.6295 70.5718 64.6955 70.4738 64.6505 70.3063C64.0048 70.4678 63.3252 70.4791 62.6735 70.3392C62.9716 70.151 63.3275 70.0547 63.6895 70.0646C63.4503 69.9885 63.2029 69.9363 62.9515 69.9089C62.3805 69.9282 62.4365 69.6883 61.8515 69.6407C61.1675 69.5812 60.6065 70.3411 60.2235 70.623C60.4835 70.3914 59.4235 70.2513 59.2345 70.4051C58.5935 70.9087 57.6395 70.1113 56.7795 70.5086C57.2245 70.3821 57.659 70.2264 58.0795 70.0426C57.9185 69.345 56.3225 70.4564 56.0865 70.6514C55.176 71.2272 54.1392 71.614 53.0485 71.7849C53.0275 71.621 52.9655 71.1898 52.6485 71.3445C52.8735 71.8324 52.4105 71.8023 52.3365 72.0769C52.3771 71.8469 52.4486 71.6224 52.5495 71.4086C52.2702 71.6663 52.0507 71.9732 51.9045 72.3107C51.7582 72.6482 51.6882 73.0094 51.6985 73.3723C51.3165 72.8166 50.9875 73.897 50.9135 74.1121C50.6275 74.9525 49.6695 75.414 49.3815 76.2736C49.4205 76.1226 49.3815 76.0356 49.2555 76.0082C48.6145 76.454 48.7855 78.1706 48.4555 78.8041C48.2555 79.1804 48.3825 79.4038 48.3095 79.7792C48.0935 79.8056 47.892 79.8934 47.7334 80.0302C47.5748 80.167 47.4671 80.346 47.4255 80.5418C47.354 80.8719 47.3632 81.2124 47.4525 81.5388C47.6105 82.1916 48.0835 82.3124 47.4525 82.5724C48.1126 83.4255 48.9003 84.1895 49.7925 84.842C49.0925 85.102 49.4775 85.3391 49.9855 85.3336C50.7565 85.3226 51.4285 85.6879 52.2215 85.6303C53.7164 86.1057 55.2817 86.3703 56.8635 86.4149C59.9055 86.5632 62.9365 86.3471 65.9815 86.5302C68.4045 86.6749 71.2165 86.7875 73.4525 85.7712C74.6425 85.2302 74.8715 84.3192 75.7065 83.5456C76.8935 82.4561 76.5685 81.0792 76.6465 79.7215ZM68.9125 72.1721C68.5448 72.0389 68.1871 71.8838 67.8415 71.7079C68.2493 71.7331 68.6315 71.8986 68.9115 72.1712L68.9125 72.1721ZM67.5305 71.6338C67.4485 71.6063 67.3665 71.5843 67.2865 71.5587C67.4535 71.4946 67.5355 71.5148 67.5295 71.6338H67.5305ZM65.4745 71.0451C65.1905 71.1183 65.4535 71.1 65.4745 71.0451C65.4615 71.0707 65.4265 71.057 65.4735 71.0451H65.4745ZM64.5355 70.7247C64.6575 70.7613 64.8985 70.6331 64.9995 70.9426C64.8625 70.9114 64.2985 70.6377 64.5345 70.7247H64.5355ZM59.4635 70.8803C59.2715 70.9536 59.1835 70.8748 59.1955 70.6405C59.3077 70.6957 59.4006 70.7789 59.4635 70.8803ZM57.6725 71.155C57.3585 71.2218 57.5345 71.0158 57.6725 71.155C57.6145 71.1659 57.6155 71.1 57.6725 71.155ZM48.0325 80.3331C48.091 80.4793 48.1126 80.6359 48.0955 80.7908C48.0725 80.6361 48.0515 80.4869 48.0325 80.3322V80.3331ZM48.0785 81.6926C48.1722 81.7248 48.2494 81.7879 48.2948 81.8696C48.3401 81.9513 48.3504 82.0456 48.3235 82.1339C48.2415 82.1906 47.8045 81.7503 48.0815 81.6917L48.0785 81.6926ZM49.9385 84.9317C50.0484 85.004 50.1637 85.0692 50.2835 85.1267C50.1635 85.1771 49.2875 85.2329 49.9375 84.9308L49.9385 84.9317Z" fill="#FF4A4A"/>
</svg>
