<svg width="42" height="45" viewBox="0 0 42 45" fill="none" xmlns="http://www.w3.org/2000/svg">
<path d="M23.0622 0.285431L4.4082 16.6732C3.28542 17.6422 2.39084 18.811 1.77939 20.108C1.16794 21.405 0.852539 22.8027 0.852539 24.2153C0.852539 25.6279 1.16794 27.0256 1.77939 28.3226C2.39084 29.6196 3.28542 30.7884 4.4082 31.7573L4.74219 32.0503C5.86612 33.0219 7.3534 33.5632 8.8992 33.5632C10.445 33.5632 11.9323 33.0219 13.0562 32.0503L21.2062 24.8891L20.8722 24.5962C19.7483 23.6248 18.2613 23.0837 16.7157 23.0837C15.1701 23.0837 13.6831 23.6248 12.5592 24.5962L23.0592 15.3677C24.1817 14.3989 25.0762 13.2303 25.6876 11.9336C26.299 10.6369 26.6146 9.23952 26.6148 7.82716C26.6151 6.4148 26.3001 5.01728 25.6892 3.72039C25.0783 2.4235 24.1843 1.25461 23.0622 0.285431Z" fill="#FFB000"/>
<path d="M37.59 13.0013L37.256 12.7083C36.1321 11.7367 34.6448 11.1955 33.099 11.1955C31.5532 11.1955 30.066 11.7367 28.942 12.7083L20.569 20.0654L20.903 20.3584C22.027 21.33 23.5142 21.8713 25.06 21.8713C26.6058 21.8713 28.0931 21.33 29.217 20.3584L18.937 29.3909C17.8142 30.3599 16.9196 31.5287 16.3082 32.8257C15.6967 34.1227 15.3813 35.5204 15.3813 36.933C15.3813 38.3456 15.6967 39.7433 16.3082 41.0403C16.9196 42.3373 17.8142 43.5061 18.937 44.4751L37.591 28.0872C38.714 27.1182 39.6088 25.9492 40.2204 24.652C40.8319 23.3549 41.1473 21.9569 41.1472 20.5441C41.1472 19.1312 40.8315 17.7333 40.2198 16.4362C39.6081 15.1391 38.7132 13.9702 37.59 13.0013Z" fill="#48464C"/>
</svg>
