<svg width="30" height="30" viewBox="0 0 30 30" fill="none" xmlns="http://www.w3.org/2000/svg">
<path d="M25.6522 11.4477H4.34944C3.9184 11.4486 3.49312 11.5467 3.10524 11.7347C2.71736 11.9227 2.37687 12.1957 2.10912 12.5335C1.84315 12.8709 1.65727 13.2642 1.5655 13.6839C1.47372 14.1036 1.47845 14.5386 1.57933 14.9562L3.86343 24.3084C4.19354 25.5137 4.91168 26.5765 5.90672 27.3324C6.90209 28.0899 8.12077 28.5 9.37447 28.5H20.6242C21.8779 28.5 23.0966 28.0899 24.092 27.3324C25.087 26.5765 25.8052 25.5137 26.1353 24.3084L28.4194 14.9577C28.5731 14.3273 28.5057 13.6632 28.2283 13.0766C27.9509 12.4899 27.4805 12.0164 26.8957 11.7352C26.5072 11.5467 26.0811 11.4484 25.6493 11.4477M9.28982 17.1308V22.8154M15.0008 17.1308V22.8154M20.7118 17.1308V22.8154M24.9954 11.4477C24.9949 10.1401 24.736 8.84545 24.2336 7.63822C23.7311 6.43099 22.9951 5.33495 22.0677 4.41308C20.1896 2.54624 17.6489 1.49889 15.0008 1.5C12.3528 1.49889 9.81197 2.54624 7.93395 4.41308C7.00683 5.33507 6.27104 6.43116 5.76885 7.63839C5.26666 8.84561 5.00798 10.1402 5.00767 11.4477" stroke="white" stroke-width="1.5" stroke-linecap="round" stroke-linejoin="round"/>
</svg>
