<svg width="28" height="27" viewBox="0 0 28 27" fill="none" xmlns="http://www.w3.org/2000/svg">
<path d="M20.0745 0.000397707C18.9192 0.0100216 17.7792 0.289474 16.7313 0.819922C15.6835 1.35037 14.7521 2.11949 14 3.07544C13.2478 2.11937 12.3163 1.35018 11.2683 0.819729C10.2202 0.289277 9.08007 0.0098883 7.9246 0.000397707C6.94696 -0.0100943 5.97722 0.192055 5.07212 0.595016C4.16702 0.997977 3.34475 1.59366 2.65341 2.3472C1.96208 3.10074 1.41558 3.997 1.04589 4.98354C0.676191 5.97009 0.490731 7.02709 0.500356 8.09271C0.500356 13.6549 5.0897 18.1871 12.0423 25.0727L14 27L15.9577 25.0578C22.9094 18.1861 27.4996 13.6549 27.4996 8.09271C27.5093 7.02701 27.3238 5.96993 26.954 4.98332C26.5843 3.99672 26.0377 3.10041 25.3463 2.34686C24.6549 1.59331 23.8325 0.997648 22.9273 0.594743C22.0221 0.191837 21.0523 -0.0102194 20.0745 0.000397707ZM14.1346 22.8809L14 23.0277L13.8654 22.8809C7.43926 16.5393 3.20063 12.3454 3.20063 8.09271C3.18534 7.41185 3.29711 6.73471 3.52914 6.10235C3.76118 5.46999 4.10864 4.8956 4.55047 4.41402C4.99229 3.93244 5.51926 3.5537 6.09942 3.30079C6.67957 3.04788 7.30081 2.92606 7.92546 2.94272C8.95146 2.94818 9.95375 3.27954 10.8097 3.89624C11.6656 4.51294 12.338 5.38823 12.7446 6.41499H15.2691C15.671 5.38834 16.3399 4.51244 17.1933 3.8954C18.0466 3.27835 19.0471 2.94716 20.0711 2.94272C20.6958 2.92606 21.317 3.04788 21.8972 3.30079C22.4773 3.5537 23.0043 3.93244 23.4461 4.41402C23.8879 4.8956 24.2354 5.46999 24.4674 6.10235C24.6995 6.73471 24.8112 7.41185 24.7959 8.09271C24.7994 12.3454 20.5599 16.5393 14.1346 22.8809Z" fill="white"/>
</svg>
