<svg width="26" height="26" viewBox="0 0 26 26" fill="none" xmlns="http://www.w3.org/2000/svg">
<path d="M19.6406 0.5H6.35938C3.12333 0.5 0.5 3.12333 0.5 6.35938V19.6406C0.5 22.8767 3.12333 25.5 6.35938 25.5H19.6406C22.8767 25.5 25.5 22.8767 25.5 19.6406V6.35938C25.5 3.12333 22.8767 0.5 19.6406 0.5Z" fill="url(#paint0_radial_1_3255)"/>
<path d="M19.6406 0.5H6.35938C3.12333 0.5 0.5 3.12333 0.5 6.35938V19.6406C0.5 22.8767 3.12333 25.5 6.35938 25.5H19.6406C22.8767 25.5 25.5 22.8767 25.5 19.6406V6.35938C25.5 3.12333 22.8767 0.5 19.6406 0.5Z" fill="url(#paint1_radial_1_3255)"/>
<path d="M13.0009 3.23438C10.3487 3.23438 10.0158 3.246 8.97422 3.29336C7.93457 3.34102 7.2249 3.50557 6.604 3.74707C5.96162 3.99648 5.4168 4.33018 4.87402 4.87314C4.33076 5.41602 3.99707 5.96084 3.74688 6.60293C3.50469 7.22402 3.33994 7.93398 3.29316 8.97314C3.24658 10.0148 3.23438 10.3479 3.23438 13.0001C3.23438 15.6523 3.24609 15.9842 3.29336 17.0258C3.34121 18.0654 3.50576 18.7751 3.74707 19.396C3.99668 20.0384 4.33037 20.5832 4.87334 21.126C5.41602 21.6692 5.96084 22.0037 6.60273 22.2531C7.22412 22.4946 7.93389 22.6592 8.97334 22.7068C10.015 22.7542 10.3477 22.7658 12.9997 22.7658C15.6521 22.7658 15.984 22.7542 17.0256 22.7068C18.0652 22.6592 18.7757 22.4946 19.3971 22.2531C20.0392 22.0037 20.5832 21.6692 21.1258 21.126C21.669 20.5832 22.0026 20.0384 22.2529 19.3963C22.493 18.7751 22.6578 18.0652 22.7066 17.026C22.7534 15.9844 22.7656 15.6523 22.7656 13.0001C22.7656 10.3479 22.7534 10.015 22.7066 8.97334C22.6578 7.93369 22.493 7.22412 22.2529 6.60322C22.0026 5.96084 21.669 5.41602 21.1258 4.87314C20.5826 4.32998 20.0394 3.99629 19.3965 3.74717C18.7739 3.50557 18.0639 3.34092 17.0242 3.29336C15.9825 3.246 15.6509 3.23438 12.9979 3.23438H13.0009ZM12.1248 4.99424C12.3849 4.99385 12.675 4.99424 13.0009 4.99424C15.6084 4.99424 15.9174 5.00361 16.9471 5.05039C17.8992 5.09395 18.416 5.25303 18.7603 5.38672C19.216 5.56367 19.5409 5.77529 19.8825 6.11719C20.2243 6.45898 20.4358 6.78447 20.6133 7.24023C20.747 7.58398 20.9062 8.10078 20.9496 9.05293C20.9964 10.0824 21.0065 10.3916 21.0065 12.9979C21.0065 15.6041 20.9964 15.9134 20.9496 16.9428C20.9061 17.8949 20.747 18.4117 20.6133 18.7556C20.4363 19.2113 20.2243 19.5358 19.8825 19.8774C19.5407 20.2192 19.2162 20.4308 18.7603 20.6078C18.4164 20.7421 17.8992 20.9008 16.9471 20.9443C15.9176 20.9911 15.6084 21.0013 13.0009 21.0013C10.3933 21.0013 10.0842 20.9911 9.05478 20.9443C8.10264 20.9004 7.58584 20.7413 7.24131 20.6076C6.78564 20.4306 6.46006 20.219 6.11826 19.8772C5.77646 19.5354 5.56494 19.2107 5.3875 18.7548C5.25381 18.4109 5.09453 17.8941 5.05117 16.942C5.00439 15.9125 4.99502 15.6033 4.99502 12.9954C4.99502 10.3876 5.00439 10.08 5.05117 9.05049C5.09473 8.09834 5.25381 7.58154 5.3875 7.2373C5.56455 6.78154 5.77646 6.45605 6.11836 6.11426C6.46016 5.77246 6.78564 5.56084 7.24141 5.3835C7.58564 5.24922 8.10264 5.09053 9.05478 5.04678C9.95566 5.00605 10.3048 4.99385 12.1248 4.9918V4.99424ZM18.2138 6.61572C17.5668 6.61572 17.0419 7.14014 17.0419 7.78721C17.0419 8.43418 17.5668 8.95908 18.2138 8.95908C18.8607 8.95908 19.3856 8.43418 19.3856 7.78721C19.3856 7.14023 18.8607 6.61572 18.2138 6.61572ZM13.0009 7.98496C10.2313 7.98496 7.98584 10.2305 7.98584 13.0001C7.98584 15.7697 10.2313 18.0142 13.0009 18.0142C15.7705 18.0142 18.0152 15.7697 18.0152 13.0001C18.0152 10.2306 15.7705 7.98496 13.0009 7.98496ZM13.0009 9.74482C14.7986 9.74482 16.2562 11.2021 16.2562 13.0001C16.2562 14.7979 14.7986 16.2554 13.0009 16.2554C11.203 16.2554 9.7457 14.7979 9.7457 13.0001C9.7457 11.2021 11.203 9.74482 13.0009 9.74482Z" fill="white"/>
<defs>
<radialGradient id="paint0_radial_1_3255" cx="0" cy="0" r="1" gradientUnits="userSpaceOnUse" gradientTransform="translate(7.14062 27.4255) rotate(-90) scale(24.7769 23.0444)">
<stop stop-color="#FFDD55"/>
<stop offset="0.1" stop-color="#FFDD55"/>
<stop offset="0.5" stop-color="#FF543E"/>
<stop offset="1" stop-color="#C837AB"/>
</radialGradient>
<radialGradient id="paint1_radial_1_3255" cx="0" cy="0" r="1" gradientUnits="userSpaceOnUse" gradientTransform="translate(-3.6876 2.30088) rotate(78.681) scale(11.0754 45.6531)">
<stop stop-color="#3771C8"/>
<stop offset="0.128" stop-color="#3771C8"/>
<stop offset="1" stop-color="#6600FF" stop-opacity="0"/>
</radialGradient>
</defs>
</svg>
