<svg width="14" height="13" viewBox="0 0 14 13" fill="none" xmlns="http://www.w3.org/2000/svg">
<path d="M7.06976 12.7341C6.87017 12.7354 6.67325 12.6922 6.49605 12.6081C6.31884 12.524 6.16668 12.4017 6.05276 12.2517C5.93795 12.1013 5.76902 11.9928 5.57557 11.9451C5.38212 11.8974 5.1765 11.9136 4.99476 11.9907C4.81377 12.0664 4.61565 12.1012 4.41694 12.0923C4.21824 12.0835 4.02474 12.0312 3.85263 11.9399C3.68052 11.8485 3.53479 11.7208 3.42765 11.5674C3.3205 11.4139 3.25504 11.2392 3.23676 11.0578C3.21995 10.8733 3.13227 10.7003 2.98929 10.5694C2.8463 10.4385 2.65727 10.3582 2.45576 10.3428C2.25766 10.3261 2.06683 10.2661 1.89921 10.168C1.7316 10.0699 1.59207 9.93653 1.49231 9.77896C1.39255 9.62139 1.33544 9.44423 1.32578 9.26232C1.31611 9.0804 1.35417 8.89901 1.43676 8.73332C1.52129 8.5672 1.53916 8.37911 1.48722 8.20212C1.43528 8.02514 1.31685 7.87057 1.15276 7.76561C0.989541 7.66031 0.856359 7.52064 0.764428 7.35836C0.672498 7.19609 0.624512 7.01596 0.624512 6.83316C0.624512 6.65035 0.672498 6.47023 0.764428 6.30795C0.856359 6.14568 0.989541 6.006 1.15276 5.9007C1.31694 5.79559 1.43548 5.64093 1.48759 5.46382C1.5397 5.28672 1.52206 5.09847 1.43776 4.93208C1.35578 4.76651 1.31822 4.5854 1.32819 4.40385C1.33816 4.22229 1.39538 4.04555 1.49508 3.88834C1.59478 3.73114 1.73408 3.59802 1.90136 3.50009C2.06864 3.40216 2.25906 3.34224 2.45676 3.32534C2.65827 3.30996 2.8473 3.22968 2.99029 3.09878C3.13327 2.96787 3.22095 2.79481 3.23776 2.61032C3.25605 2.42896 3.3215 2.25425 3.42865 2.10079C3.53579 1.94733 3.68152 1.8196 3.85363 1.72826C4.02574 1.63693 4.21924 1.58465 4.41794 1.5758C4.61665 1.56695 4.81477 1.60179 4.99576 1.6774C5.17698 1.75464 5.38212 1.77101 5.57521 1.72364C5.7683 1.67626 5.93701 1.56817 6.05176 1.41831C6.16678 1.26888 6.31934 1.14695 6.49659 1.06279C6.67384 0.978625 6.87058 0.934692 7.07026 0.934692C7.26993 0.934692 7.46667 0.978625 7.64392 1.06279C7.82117 1.14695 7.97374 1.26888 8.08876 1.41831C8.20356 1.56863 8.3725 1.67715 8.56594 1.72486C8.75939 1.77257 8.96501 1.75642 9.14676 1.67923C9.32774 1.60362 9.52587 1.56878 9.72457 1.57763C9.92327 1.58648 10.1168 1.63876 10.2889 1.73009C10.461 1.82143 10.6067 1.94917 10.7139 2.10262C10.821 2.25608 10.8865 2.43079 10.9048 2.61215C10.9216 2.79664 11.0092 2.9697 11.1522 3.10061C11.2952 3.23152 11.4842 3.31179 11.6858 3.32717C11.8838 3.34392 12.0747 3.40384 12.2423 3.50194C12.4099 3.60003 12.5494 3.73344 12.6492 3.89102C12.749 4.04859 12.8061 4.22574 12.8157 4.40766C12.8254 4.58957 12.7873 4.77096 12.7048 4.93666C12.6204 5.10257 12.6025 5.29038 12.6543 5.46716C12.706 5.64394 12.8241 5.79839 12.9878 5.90345C13.151 6.00875 13.2842 6.14842 13.3761 6.3107C13.468 6.47297 13.516 6.6531 13.516 6.8359C13.516 7.01871 13.468 7.19883 13.3761 7.36111C13.2842 7.52339 13.151 7.66306 12.9878 7.76836C12.8246 7.87364 12.7071 8.02805 12.6558 8.20461C12.6044 8.38116 12.6225 8.56863 12.7068 8.73424C12.7893 8.89993 12.8274 9.08132 12.8177 9.26323C12.8081 9.44515 12.751 9.6223 12.6512 9.77987C12.5514 9.93745 12.4119 10.0709 12.2443 10.169C12.0767 10.2671 11.8858 10.327 11.6878 10.3437C11.4862 10.3591 11.2972 10.4394 11.1542 10.5703C11.0112 10.7012 10.9236 10.8743 10.9068 11.0587C10.8885 11.2401 10.823 11.4148 10.7159 11.5683C10.6087 11.7217 10.463 11.8495 10.2909 11.9408C10.1188 12.0321 9.92527 12.0844 9.72657 12.0933C9.52787 12.1021 9.32974 12.0673 9.14876 11.9917C8.96753 11.9144 8.76239 11.898 8.5693 11.9454C8.37621 11.9928 8.2075 12.1009 8.09276 12.2508C7.97824 12.4016 7.82515 12.5245 7.64684 12.6088C7.46853 12.693 7.27041 12.7361 7.06976 12.7341ZM5.35276 11.5595C5.55209 11.5595 5.74853 11.6033 5.92552 11.6872C6.10251 11.7712 6.25486 11.8929 6.36976 12.042C6.44833 12.1453 6.55302 12.2297 6.67491 12.288C6.79679 12.3462 6.93225 12.3767 7.06976 12.3767C7.20726 12.3767 7.34272 12.3462 7.46461 12.288C7.58649 12.2297 7.69118 12.1453 7.76976 12.042C7.93766 11.8233 8.18401 11.6654 8.46594 11.5958C8.74787 11.5262 9.04752 11.5493 9.31276 11.6612C9.43721 11.7139 9.57371 11.7385 9.71072 11.7329C9.84774 11.7272 9.98126 11.6914 10.1 11.6286C10.2188 11.5657 10.3192 11.4777 10.393 11.3718C10.4667 11.2659 10.5116 11.1454 10.5238 11.0203C10.5488 10.7539 10.6758 10.5041 10.8824 10.315C11.0889 10.1259 11.3617 10.0096 11.6528 9.98667C11.7873 9.97402 11.9167 9.93233 12.0302 9.86502C12.1437 9.7977 12.2382 9.70669 12.3058 9.59945C12.3735 9.49222 12.4124 9.37182 12.4193 9.24815C12.4263 9.12447 12.401 9.00106 12.3458 8.88804C12.2226 8.64588 12.1962 8.37185 12.2712 8.1137C12.3461 7.85555 12.5176 7.62966 12.7558 7.4754C12.8674 7.40329 12.9585 7.30769 13.0213 7.19665C13.0842 7.0856 13.117 6.96235 13.117 6.83728C13.117 6.7122 13.0842 6.58895 13.0213 6.47791C12.9585 6.36686 12.8674 6.27126 12.7558 6.19916C12.5174 6.04458 12.3459 5.81836 12.2709 5.5599C12.196 5.30144 12.2225 5.02711 12.3458 4.78468C12.4034 4.67074 12.4303 4.54577 12.4241 4.42033C12.4179 4.29489 12.3788 4.17265 12.3102 4.06394C12.2415 3.95522 12.1453 3.86322 12.0297 3.7957C11.9141 3.72818 11.7824 3.68712 11.6458 3.67598C11.3551 3.6531 11.0825 3.53709 10.876 3.34837C10.6695 3.15964 10.5423 2.9103 10.5168 2.64419C10.5044 2.52027 10.4598 2.40085 10.3868 2.29587C10.3138 2.1909 10.2145 2.10342 10.0971 2.04072C9.97969 1.97802 9.84762 1.94191 9.71188 1.93541C9.57614 1.9289 9.44067 1.95219 9.31676 2.00333C9.05176 2.11673 8.75172 2.14145 8.46887 2.0732C8.18602 2.00495 7.93827 1.84804 7.76876 1.6298C7.69018 1.52649 7.58549 1.44211 7.46361 1.38383C7.34172 1.32556 7.20626 1.29513 7.06876 1.29513C6.93125 1.29513 6.79579 1.32556 6.67391 1.38383C6.55202 1.44211 6.44733 1.52649 6.36876 1.6298C6.20041 1.84724 5.95434 2.00396 5.67311 2.07284C5.39188 2.14172 5.0932 2.11843 4.82876 2.00699C4.7043 1.95421 4.56781 1.92962 4.43079 1.93529C4.29377 1.94096 4.16025 1.97672 4.04151 2.03956C3.92276 2.1024 3.82227 2.19048 3.74852 2.29635C3.67477 2.40222 3.62992 2.52278 3.61776 2.64785C3.59212 2.91337 3.46525 3.16216 3.25938 3.35063C3.05351 3.53911 2.78177 3.65526 2.49176 3.67873C2.35567 3.69008 2.22454 3.73113 2.10935 3.79844C1.99416 3.86574 1.89827 3.95734 1.82971 4.06557C1.76116 4.17379 1.72194 4.29548 1.71533 4.42044C1.70873 4.5454 1.73493 4.66999 1.79176 4.78376C1.91374 5.02598 1.93933 5.29963 1.86409 5.5573C1.78884 5.81497 1.6175 6.04042 1.37976 6.19458C1.26692 6.26652 1.17475 6.36237 1.1111 6.47395C1.04745 6.58554 1.01421 6.70956 1.01421 6.83545C1.01421 6.96133 1.04745 7.08535 1.1111 7.19694C1.17475 7.30853 1.26692 7.40437 1.37976 7.47631C1.61796 7.63055 1.78962 7.85632 1.86489 8.1144C1.94015 8.37247 1.91428 8.64654 1.79176 8.88896C1.73411 9.0029 1.70724 9.12786 1.71344 9.25331C1.71963 9.37875 1.75869 9.50099 1.82733 9.6097C1.89597 9.71842 1.99217 9.81042 2.10781 9.87794C2.22345 9.94546 2.35514 9.98652 2.49176 9.99765C2.78204 10.02 3.05447 10.1351 3.26128 10.323C3.46808 10.5108 3.59606 10.7593 3.62276 11.0249C3.63515 11.1495 3.67999 11.2695 3.75351 11.375C3.82702 11.4804 3.92708 11.5682 4.04529 11.631C4.1635 11.6937 4.29642 11.7297 4.43291 11.7357C4.5694 11.7417 4.70548 11.7178 4.82976 11.6657C4.99351 11.5958 5.17204 11.5595 5.35276 11.5595Z" fill="#204F38"/>
<path d="M7.06999 11.7163C6.90003 11.7169 6.73247 11.6796 6.58176 11.6077C6.43105 11.5357 6.30174 11.4313 6.20499 11.3034C6.11545 11.1859 5.98373 11.1009 5.83277 11.0633C5.68182 11.0257 5.52123 11.0377 5.37899 11.0974C5.22506 11.1634 5.056 11.1944 4.88617 11.1878C4.71634 11.1812 4.55076 11.1371 4.40351 11.0594C4.25626 10.9816 4.13168 10.8725 4.04036 10.7412C3.94904 10.61 3.89369 10.4605 3.87899 10.3054C3.86489 10.1629 3.79661 10.0294 3.68607 9.92818C3.57552 9.82697 3.4297 9.76446 3.27399 9.75155C3.10465 9.73809 2.94135 9.68741 2.79798 9.60381C2.65461 9.52021 2.5354 9.40616 2.45048 9.27134C2.36557 9.13653 2.31745 8.98494 2.31023 8.82946C2.30301 8.67397 2.33689 8.51919 2.40899 8.37827C2.4731 8.24881 2.48611 8.10299 2.4458 7.96573C2.40549 7.82847 2.31436 7.70828 2.18799 7.62571C2.04933 7.5361 1.93619 7.41732 1.8581 7.27935C1.78002 7.14138 1.73926 6.98826 1.73926 6.83287C1.73926 6.67748 1.78002 6.52436 1.8581 6.38639C1.93619 6.24842 2.04933 6.12964 2.18799 6.04003C2.31645 5.95774 2.40931 5.83681 2.45042 5.6983C2.49153 5.55979 2.47829 5.41247 2.41299 5.28198C2.34089 5.14105 2.30701 4.98627 2.31423 4.83078C2.32145 4.6753 2.36957 4.52371 2.45448 4.3889C2.5394 4.25409 2.65861 4.14003 2.80198 4.05643C2.94535 3.97283 3.10865 3.92215 3.27799 3.90869C3.4337 3.89578 3.57952 3.83328 3.69007 3.73207C3.80061 3.63086 3.86889 3.49735 3.88299 3.3548C3.89769 3.19976 3.95304 3.05026 4.04436 2.919C4.13568 2.78774 4.26026 2.67861 4.40751 2.60086C4.55476 2.52312 4.72034 2.47907 4.89017 2.47246C5.06 2.46585 5.22906 2.49686 5.38299 2.56288C5.52439 2.62157 5.68367 2.63348 5.8336 2.59657C5.98353 2.55967 6.1148 2.47624 6.20499 2.36055C6.30193 2.23236 6.43156 2.12776 6.58264 2.05581C6.73373 1.98385 6.9017 1.94673 7.07199 1.94765C7.24201 1.94671 7.40971 1.98384 7.56047 2.05581C7.71123 2.12777 7.84049 2.23239 7.93699 2.36055C8.02653 2.47801 8.15826 2.56296 8.30921 2.60061C8.46016 2.63825 8.62076 2.6262 8.76299 2.56654C8.91693 2.50053 9.08599 2.46951 9.25582 2.47612C9.42565 2.48273 9.59122 2.52678 9.73848 2.60452C9.88573 2.68227 10.0103 2.7914 10.1016 2.92266C10.1929 3.05392 10.2483 3.20343 10.263 3.35847C10.2771 3.50101 10.3454 3.63452 10.4559 3.73573C10.5665 3.83694 10.7123 3.89944 10.868 3.91236C11.0373 3.92581 11.2006 3.97649 11.344 4.06009C11.4874 4.1437 11.6066 4.25775 11.6915 4.39256C11.7764 4.52738 11.8245 4.67896 11.8318 4.83445C11.839 4.98993 11.8051 5.14471 11.733 5.28564C11.6689 5.41509 11.6559 5.56091 11.6962 5.69818C11.7365 5.83544 11.8276 5.95563 11.954 6.0382C12.0927 6.1276 12.2058 6.24621 12.2839 6.38404C12.362 6.52186 12.4028 6.67485 12.4028 6.83012C12.4028 6.98539 12.362 7.13838 12.2839 7.27621C12.2058 7.41403 12.0927 7.53264 11.954 7.62205C11.825 7.70439 11.7317 7.82552 11.6902 7.96436C11.6487 8.1032 11.6618 8.25096 11.727 8.38193C11.7991 8.52286 11.833 8.67764 11.8258 8.83312C11.8185 8.9886 11.7704 9.14019 11.6855 9.275C11.6006 9.40982 11.4814 9.52387 11.338 9.60747C11.1946 9.69108 11.0313 9.74176 10.862 9.75521C10.7063 9.76813 10.5605 9.83063 10.4499 9.93184C10.3394 10.033 10.2711 10.1666 10.257 10.3091C10.2423 10.4641 10.1869 10.6136 10.0956 10.7449C10.0043 10.8762 9.87973 10.9853 9.73248 11.063C9.58522 11.1408 9.41965 11.1848 9.24982 11.1914C9.07999 11.1981 8.91092 11.167 8.75699 11.101C8.61583 11.0428 8.457 11.0312 8.30751 11.0681C8.15802 11.1049 8.02709 11.1881 7.93699 11.3034C7.84005 11.4315 7.71042 11.5361 7.55934 11.6081C7.40826 11.68 7.24029 11.7172 7.06999 11.7163ZM5.65799 10.6881C5.82748 10.6877 5.99458 10.7247 6.14514 10.7959C6.29571 10.8672 6.42532 10.9706 6.52299 11.0974C6.58438 11.1778 6.66607 11.2435 6.76112 11.2889C6.85618 11.3343 6.9618 11.358 7.06899 11.358C7.17619 11.358 7.28181 11.3343 7.37686 11.2889C7.47192 11.2435 7.55361 11.1778 7.61499 11.0974C7.75751 10.9116 7.96674 10.7776 8.20616 10.7187C8.44558 10.6598 8.7 10.6798 8.92499 10.7751C9.02227 10.8165 9.12901 10.8358 9.23618 10.8315C9.34335 10.8271 9.4478 10.7992 9.5407 10.7501C9.63359 10.701 9.71219 10.6321 9.76986 10.5493C9.82753 10.4665 9.86256 10.3721 9.87199 10.2743C9.89381 10.0482 10.0019 9.83627 10.1772 9.67574C10.3525 9.51522 10.584 9.4163 10.831 9.39633C10.9376 9.38758 11.0403 9.35551 11.1306 9.30282C11.2208 9.25014 11.2959 9.17837 11.3495 9.09357C11.4031 9.00877 11.4337 8.91342 11.4386 8.81555C11.4436 8.71767 11.4228 8.62014 11.378 8.53116C11.2737 8.32537 11.2516 8.09259 11.3155 7.87341C11.3795 7.65423 11.5255 7.46256 11.728 7.33183L11.843 7.47648L11.73 7.33C11.8175 7.27374 11.8889 7.19904 11.9382 7.11219C11.9875 7.02534 12.0132 6.92891 12.0132 6.83104C12.0132 6.73316 11.9875 6.63673 11.9382 6.54988C11.8889 6.46304 11.8175 6.38833 11.73 6.33208C11.5271 6.2016 11.3808 6.01005 11.3164 5.79085C11.2521 5.57166 11.2739 5.33874 11.378 5.13275C11.4232 5.04368 11.4443 4.94596 11.4396 4.84785C11.4348 4.74973 11.4043 4.6541 11.3507 4.56906C11.297 4.48401 11.2218 4.41205 11.1313 4.35925C11.0409 4.30646 10.9379 4.27439 10.831 4.26575C10.584 4.24577 10.3525 4.14686 10.1772 3.98633C10.0019 3.8258 9.89381 3.6139 9.87199 3.38776C9.86288 3.28999 9.82813 3.19568 9.77069 3.11283C9.71324 3.02999 9.63481 2.96106 9.54205 2.9119C9.44928 2.86274 9.34493 2.8348 9.23785 2.83046C9.13078 2.82613 9.02414 2.84551 8.92699 2.88697C8.70222 2.98247 8.44796 3.0027 8.20855 2.94414C7.96915 2.88558 7.7598 2.75195 7.61699 2.56654C7.55557 2.48601 7.4737 2.42035 7.37841 2.37521C7.28312 2.33008 7.17728 2.30682 7.06999 2.30745C6.96299 2.30681 6.85742 2.33007 6.76245 2.37522C6.66749 2.42037 6.58598 2.48604 6.52499 2.56654C6.38248 2.75226 6.17325 2.88627 5.93383 2.94517C5.6944 3.00406 5.43999 2.98412 5.21499 2.8888C5.11771 2.8474 5.01098 2.82806 4.9038 2.83241C4.79663 2.83676 4.69218 2.86468 4.59929 2.91381C4.5064 2.96293 4.42779 3.03181 4.37013 3.11463C4.31246 3.19745 4.27743 3.29176 4.26799 3.38959C4.24618 3.61573 4.13813 3.82763 3.96279 3.98816C3.78745 4.14869 3.556 4.24761 3.30899 4.26758C3.2022 4.27592 3.09918 4.30774 3.00869 4.36033C2.9182 4.41292 2.84291 4.48473 2.78922 4.56965C2.73552 4.65458 2.70501 4.75011 2.70027 4.84815C2.69553 4.94618 2.7167 5.04381 2.76199 5.13275C2.8663 5.33853 2.8884 5.57131 2.82444 5.79049C2.76047 6.00967 2.61451 6.20134 2.41199 6.33208C2.32411 6.38828 2.25234 6.46307 2.20279 6.55009C2.15324 6.63712 2.12736 6.73381 2.12736 6.83195C2.12736 6.93009 2.15324 7.02679 2.20279 7.11381C2.25234 7.20084 2.32411 7.27563 2.41199 7.33183C2.61485 7.4623 2.76122 7.65385 2.82555 7.87305C2.88989 8.09225 2.8681 8.32517 2.76399 8.53116C2.71877 8.62022 2.69765 8.71794 2.7024 8.81606C2.70715 8.91418 2.73765 9.0098 2.7913 9.09485C2.84496 9.17989 2.9202 9.25186 3.01066 9.30465C3.10112 9.35745 3.20413 9.38952 3.31099 9.39816C3.558 9.41813 3.78945 9.51705 3.96479 9.67757C4.14013 9.8381 4.24818 10.05 4.26999 10.2761C4.27911 10.3739 4.31386 10.4682 4.3713 10.5511C4.42874 10.6339 4.50718 10.7028 4.59994 10.752C4.6927 10.8012 4.79705 10.8291 4.90413 10.8334C5.01121 10.8378 5.11785 10.8184 5.21499 10.7769C5.35393 10.7184 5.50506 10.6881 5.65799 10.6881Z" fill="#204F38"/>
<path d="M5.31159 9.2534H3.88359C3.85733 9.2534 3.83132 9.24866 3.80706 9.23946C3.78279 9.23026 3.76074 9.21677 3.74217 9.19977C3.7236 9.18276 3.70887 9.16258 3.69882 9.14036C3.68877 9.11815 3.68359 9.09434 3.68359 9.07029V6.17725C3.68359 6.12868 3.70466 6.08211 3.74217 6.04777C3.77968 6.01343 3.83055 5.99414 3.88359 5.99414H5.31159C5.43651 5.99414 5.55631 6.03957 5.64464 6.12044C5.73297 6.20131 5.78259 6.31099 5.78259 6.42535V8.8231C5.78233 8.9373 5.73259 9.04675 5.64429 9.12742C5.55599 9.20809 5.43634 9.2534 5.31159 9.2534ZM4.07959 8.89543H5.31159C5.33265 8.89496 5.35271 8.8871 5.3676 8.87346C5.3825 8.85982 5.39109 8.84146 5.39159 8.82218V6.42535C5.39109 6.40607 5.3825 6.38771 5.3676 6.37408C5.35271 6.36044 5.33265 6.35257 5.31159 6.35211H4.07959V8.89543Z" fill="#204F38"/>
<path d="M6.19263 9.19594C6.01494 9.1972 5.8421 9.14294 5.70263 9.04213C5.54573 8.92756 5.43921 8.76504 5.40263 8.58437C5.39449 8.54607 5.39047 8.50713 5.39063 8.4681V6.37156C5.39103 6.33526 5.40322 6.29989 5.42563 6.26994L6.09963 5.37639C6.49282 4.84271 6.6632 4.19734 6.57963 3.55816C6.57448 3.522 6.58125 3.48525 6.59907 3.45262C6.61689 3.42 6.64494 3.39299 6.67963 3.37506C6.80704 3.31494 6.94829 3.28355 7.09163 3.28351C7.29148 3.29082 7.48369 3.35576 7.64083 3.46904C7.79797 3.58232 7.91199 3.73816 7.96663 3.9143C8.06194 4.14211 8.10385 4.38572 8.08963 4.62932C8.07626 4.76236 8.0426 4.89302 7.98963 5.0175C7.98372 5.04913 7.9733 5.07991 7.95863 5.10906C7.92951 5.18847 7.90743 5.26992 7.89263 5.35259H9.99263C10.1693 5.35448 10.3383 5.41946 10.4634 5.53369C10.5885 5.64793 10.66 5.80238 10.6626 5.96415C10.6629 6.09027 10.6207 6.2134 10.5418 6.31678C10.4629 6.42015 10.3511 6.49874 10.2216 6.54185C10.2933 6.65919 10.3214 6.79467 10.3018 6.92791C10.2821 7.06115 10.2157 7.18494 10.1126 7.28067C10.0691 7.32161 10.0192 7.35646 9.96463 7.38413C10.0331 7.48364 10.0695 7.59884 10.0696 7.71646C10.0693 7.79744 10.0515 7.87757 10.0171 7.95221C9.9828 8.02684 9.93267 8.09452 9.86963 8.15133C9.78687 8.22751 9.68325 8.2819 9.56963 8.3088C9.61231 8.38955 9.63421 8.47819 9.63363 8.56789C9.63458 8.64919 9.61732 8.7298 9.58292 8.80475C9.54852 8.8797 9.49771 8.9474 9.43363 9.00368C9.37257 9.06284 9.29869 9.10968 9.21673 9.14121C9.13477 9.17274 9.04652 9.18826 8.95763 9.18679L6.19263 9.19594ZM5.77263 6.42649V8.46627C5.77057 8.48423 5.77057 8.50233 5.77263 8.52029C5.79171 8.61523 5.84699 8.70088 5.92863 8.76198C6.00132 8.81458 6.09204 8.84183 6.18463 8.83889L8.96563 8.82424C9.00231 8.82665 9.03914 8.82185 9.07363 8.81017C9.10813 8.79848 9.13949 8.78018 9.16563 8.75649C9.19468 8.73242 9.21762 8.70282 9.23283 8.66976C9.24803 8.6367 9.25513 8.60099 9.25363 8.56515C9.25297 8.51034 9.23322 8.45717 9.19724 8.41336C9.16127 8.36956 9.11095 8.33741 9.05363 8.32162C9.02467 8.32217 8.99592 8.31696 8.96937 8.30634C8.94282 8.29572 8.91911 8.27995 8.89988 8.26011C8.88065 8.24028 8.86635 8.21685 8.85798 8.19146C8.84961 8.16607 8.84736 8.13931 8.8514 8.11305C8.85543 8.08679 8.86565 8.06164 8.88135 8.03934C8.89705 8.01705 8.91785 7.99815 8.94231 7.98394C8.96677 7.96973 8.99432 7.96056 9.02303 7.95706C9.05175 7.95355 9.08096 7.9558 9.10863 7.96365H9.40363C9.47789 7.96365 9.54911 7.93664 9.60162 7.88857C9.65413 7.84049 9.68363 7.77529 9.68363 7.7073C9.68363 7.63932 9.65413 7.57412 9.60162 7.52604C9.54911 7.47797 9.47789 7.45096 9.40363 7.45096C9.37446 7.45672 9.34424 7.45643 9.3152 7.45012C9.28617 7.4438 9.25904 7.43161 9.23582 7.41445C9.21259 7.39729 9.19386 7.37558 9.18099 7.35093C9.16812 7.32628 9.16144 7.2993 9.16144 7.27197C9.16144 7.24465 9.16812 7.21767 9.18099 7.19302C9.19386 7.16837 9.21259 7.14666 9.23582 7.1295C9.25904 7.11234 9.28617 7.10015 9.3152 7.09383C9.34424 7.08751 9.37446 7.08723 9.40363 7.09299H9.64163C9.67886 7.0941 9.71594 7.08799 9.75041 7.07505C9.78488 7.06211 9.81597 7.04264 9.84163 7.01792C9.86846 6.9942 9.88974 6.96575 9.90418 6.93427C9.91862 6.90279 9.92592 6.86895 9.92563 6.83481C9.92564 6.7996 9.91797 6.76474 9.90307 6.73228C9.88817 6.69981 9.86635 6.6704 9.83887 6.64575C9.8114 6.62111 9.77883 6.60174 9.74307 6.58877C9.70731 6.5758 9.66908 6.5695 9.63063 6.57023C9.58461 6.56553 9.5418 6.54635 9.5095 6.51597C9.47721 6.48559 9.45742 6.4459 9.45353 6.40365C9.44963 6.36141 9.46187 6.31924 9.48815 6.28434C9.51443 6.24943 9.55312 6.22396 9.59763 6.21226H10.0036C10.0404 6.21226 10.0769 6.20559 10.1109 6.19264C10.1448 6.17969 10.1757 6.16071 10.2016 6.1368C10.2276 6.11289 10.2481 6.08451 10.262 6.05331C10.2759 6.02211 10.2829 5.9887 10.2826 5.955C10.2796 5.88848 10.2491 5.82549 10.1973 5.77876C10.1456 5.73202 10.0763 5.70503 10.0036 5.70323H7.68163C7.63249 5.70355 7.58495 5.68731 7.54806 5.65759C7.51117 5.62787 7.48752 5.58676 7.48163 5.5421C7.47034 5.35513 7.50167 5.16806 7.57363 4.99279L7.60663 4.90123C7.64355 4.81061 7.66839 4.71624 7.68063 4.62017C7.694 4.42624 7.66265 4.23191 7.58863 4.0498C7.38863 3.63873 7.15363 3.63873 7.07263 3.63873C7.03661 3.63849 7.00069 3.64217 6.96563 3.64972C7.02175 4.33199 6.8248 5.01165 6.40663 5.57872L5.77263 6.42649Z" fill="#204F38"/>
</svg>
