<svg width="28" height="27" viewBox="0 0 28 27" fill="none" xmlns="http://www.w3.org/2000/svg">
<path d="M27.5 3.37436H0.5V0H27.5V3.37436ZM17.3754 10.1231H0.5V6.74872H17.3754V10.1231ZM27.5 16.9445H0.5V13.5702H27.5V16.9445Z" fill="white"/>
<path d="M2.18744 26.323C3.11938 26.323 3.87487 25.5676 3.87487 24.6358C3.87487 23.704 3.11938 22.9486 2.18744 22.9486C1.25549 22.9486 0.5 23.704 0.5 24.6358C0.5 25.5676 1.25549 26.323 2.18744 26.323Z" fill="white"/>
<path d="M10.2538 24.6317C10.2542 24.9659 10.1555 25.2928 9.97004 25.5709C9.7846 25.8489 9.52082 26.0658 9.21208 26.1939C8.90334 26.3221 8.56353 26.3557 8.23563 26.2907C7.90774 26.2257 7.60652 26.0648 7.37007 25.8286C7.13363 25.5923 6.9726 25.2912 6.90736 24.9634C6.84212 24.6356 6.8756 24.2959 7.00357 23.9871C7.13154 23.6783 7.34825 23.4144 7.62626 23.2289C7.90428 23.0433 8.2311 22.9443 8.56538 22.9445C9.01346 22.9445 9.44319 23.1225 9.76003 23.4393C10.0769 23.7561 10.2549 24.1857 10.2549 24.6338L10.2538 24.6317Z" fill="white"/>
<path d="M14.9423 26.323C15.8742 26.323 16.6297 25.5676 16.6297 24.6358C16.6297 23.704 15.8742 22.9486 14.9423 22.9486C14.0104 22.9486 13.2549 23.704 13.2549 24.6358C13.2549 25.5676 14.0104 26.323 14.9423 26.323Z" fill="white"/>
</svg>
