<svg width="14" height="15" viewBox="0 0 14 15" fill="none" xmlns="http://www.w3.org/2000/svg">
<path d="M13.0092 4.8001C12.8589 4.6278 12.7363 4.43665 12.6452 4.23247C12.5847 4.00926 12.5591 3.7793 12.5692 3.54949C12.6081 3.17143 12.5175 2.79166 12.3102 2.46277C12.0303 2.17883 11.6604 1.98226 11.2522 1.90064C11.0129 1.83884 10.7843 1.74637 10.5732 1.62599C10.3856 1.48171 10.2222 1.31298 10.0882 1.1252C9.87483 0.792383 9.55317 0.528946 9.16822 0.371722C8.76764 0.29578 8.35126 0.334125 7.97522 0.481585C7.73548 0.562665 7.48424 0.611692 7.22922 0.627152C6.97421 0.611692 6.72296 0.562665 6.48322 0.481585C6.10787 0.331709 5.69065 0.293288 5.29022 0.371722C4.90467 0.528107 4.58276 0.791751 4.37022 1.1252C4.23463 1.31186 4.07141 1.4804 3.88522 1.62599C3.67444 1.74687 3.44576 1.83937 3.20622 1.90064C2.79879 1.98391 2.42932 2.18021 2.14822 2.46277C1.94089 2.79166 1.85038 3.17143 1.88922 3.54949C1.89904 3.77929 1.87345 4.00921 1.81322 4.23247C1.72265 4.43686 1.60002 4.62808 1.44922 4.8001C1.16716 5.0914 0.992254 5.45651 0.949219 5.84379C0.992254 6.23107 1.16716 6.59618 1.44922 6.88748C1.59958 7.05978 1.72217 7.25093 1.81322 7.45511C1.87377 7.67832 1.89936 7.90828 1.88922 8.13808C1.85038 8.51615 1.94089 8.89592 2.14822 9.22481C2.42811 9.50875 2.79808 9.70532 3.20622 9.78694C3.44556 9.84874 3.67415 9.94121 3.88522 10.0616C4.07282 10.2059 4.23623 10.3746 4.37022 10.5624C4.47022 10.6887 4.57622 10.8151 4.69022 10.9286V13.3254C4.69058 13.4548 4.72796 13.5817 4.79866 13.6937C4.86935 13.8057 4.97087 13.8988 5.09311 13.9636C5.21534 14.0284 5.354 14.0628 5.49527 14.0633C5.63654 14.0638 5.77548 14.0303 5.89822 13.9663L7.04622 13.3675C7.10165 13.3386 7.16438 13.3233 7.22822 13.3233C7.29205 13.3233 7.35479 13.3386 7.41022 13.3675L8.56222 13.9672C8.68418 14.0306 8.82198 14.064 8.96222 14.0642C9.17655 14.0628 9.3816 13.984 9.53288 13.845C9.68415 13.706 9.76943 13.518 9.77022 13.3218V10.9286C9.88522 10.8132 9.98722 10.6869 10.0902 10.5624C10.2258 10.3757 10.389 10.2072 10.5752 10.0616C10.786 9.94071 11.0147 9.84821 11.2542 9.78694C11.6617 9.70367 12.0311 9.50737 12.3122 9.22481C12.5196 8.89592 12.6101 8.51615 12.5712 8.13808C12.5609 7.90772 12.5861 7.67717 12.6462 7.45327C12.7368 7.24888 12.8594 7.05767 13.0102 6.88565C13.2923 6.59435 13.4672 6.22924 13.5102 5.84196C13.4611 5.45559 13.2838 5.09229 13.0022 4.80101L13.0092 4.8001ZM9.33022 13.3282C9.33015 13.387 9.31325 13.4448 9.2812 13.4958C9.24915 13.5468 9.20306 13.5892 9.14754 13.6189C9.09201 13.6485 9.02897 13.6643 8.96471 13.6647C8.90044 13.6651 8.83718 13.6501 8.78122 13.6211L7.62922 13.0215C7.50734 12.9579 7.36949 12.9245 7.22922 12.9245C7.08895 12.9245 6.9511 12.9579 6.82922 13.0215L5.67722 13.6211C5.62126 13.6501 5.558 13.6651 5.49373 13.6647C5.42946 13.6643 5.36643 13.6485 5.3109 13.6189C5.25538 13.5892 5.2093 13.5468 5.17725 13.4958C5.1452 13.4448 5.12829 13.387 5.12822 13.3282V11.2573C5.17964 11.2813 5.23276 11.3021 5.28722 11.3195C5.40026 11.3529 5.51846 11.3693 5.63722 11.368C5.92613 11.3532 6.21114 11.2999 6.48322 11.2097C6.71818 11.1139 6.97252 11.0644 7.22972 11.0644C7.48693 11.0644 7.74126 11.1139 7.97622 11.2097C8.35157 11.3595 8.76879 11.398 9.16922 11.3195C9.22417 11.3032 9.27739 11.2824 9.32822 11.2573V13.3291L9.33022 13.3282ZM12.6462 6.65677C12.4687 6.8611 12.3261 7.08891 12.2232 7.33243C12.1469 7.59379 12.1132 7.86404 12.1232 8.13442C12.1567 8.42876 12.0966 8.72567 11.9502 8.98952C11.7196 9.20121 11.4267 9.3469 11.1072 9.40883C10.8245 9.48164 10.5549 9.59206 10.3072 9.73658C10.083 9.90438 9.88782 10.1022 9.72822 10.3234C9.56391 10.5844 9.32086 10.7964 9.02822 10.9341C8.71315 10.9773 8.39115 10.9383 8.09922 10.8215C7.82143 10.7132 7.52263 10.6574 7.22072 10.6574C6.91881 10.6574 6.62001 10.7132 6.34222 10.8215C6.05075 10.9398 5.72827 10.9789 5.41322 10.9341C5.11994 10.7972 4.87666 10.585 4.71322 10.3234C4.55189 10.1035 4.3569 9.90583 4.13422 9.73658C3.88678 9.59162 3.61717 9.48115 3.33422 9.40883C3.01508 9.34605 2.72242 9.20049 2.49122 8.98952C2.34485 8.72567 2.28478 8.42876 2.31822 8.13442C2.32821 7.86404 2.29451 7.59379 2.21822 7.33243C2.11488 7.08913 1.97229 6.86138 1.79522 6.65677C1.57026 6.43026 1.42405 6.14757 1.37522 5.8447C1.42463 5.542 1.57076 5.25946 1.79522 5.03264C1.97275 4.82831 2.11537 4.6005 2.21822 4.35698C2.29451 4.09562 2.32821 3.82537 2.31822 3.55499C2.28478 3.26065 2.34485 2.96374 2.49122 2.69989C2.72183 2.4882 3.01474 2.34251 3.33422 2.28058C3.61698 2.20777 3.88652 2.09734 4.13422 1.95283C4.35841 1.78503 4.55361 1.58718 4.71322 1.36598C4.87753 1.10501 5.12058 0.892985 5.41322 0.755325C5.4819 0.735968 5.55336 0.726094 5.62522 0.726029C5.86939 0.742548 6.10977 0.790632 6.33922 0.86885C6.62174 0.963009 6.91797 1.01824 7.21822 1.03273C7.51843 1.01797 7.81462 0.96275 8.09722 0.86885C8.38869 0.75056 8.71116 0.711471 9.02622 0.756241C9.3195 0.893078 9.56278 1.10531 9.72622 1.36689C9.88755 1.58687 10.0825 1.7845 10.3052 1.95374C10.5527 2.09871 10.8223 2.20917 11.1052 2.2815C11.4244 2.34427 11.717 2.48984 11.9482 2.70081C12.0946 2.96465 12.1547 3.26157 12.1212 3.5559C12.1112 3.82628 12.1449 4.09654 12.2212 4.3579C12.3249 4.60227 12.4682 4.83097 12.6462 5.0363C12.8712 5.26281 13.0174 5.5455 13.0662 5.84837C13.0183 6.1504 12.8719 6.43215 12.6462 6.65677ZM7.22922 1.64887C6.32378 1.64887 5.43867 1.89469 4.68582 2.35523C3.93297 2.81577 3.3462 3.47035 2.9997 4.2362C2.6532 5.00206 2.56254 5.84478 2.73919 6.6578C2.91583 7.47082 3.35184 8.21763 3.99208 8.80379C4.63233 9.38995 5.44805 9.78913 6.3361 9.95085C7.22414 10.1126 8.14462 10.0296 8.98114 9.71234C9.81766 9.39511 10.5326 8.85791 11.0357 8.16866C11.5387 7.47941 11.8072 6.66908 11.8072 5.84013C11.8056 4.72898 11.3228 3.66377 10.4646 2.87807C9.6064 2.09237 8.44289 1.65033 7.22922 1.64887ZM7.22922 9.62855C6.41087 9.62855 5.61091 9.40635 4.93052 8.99005C4.25012 8.57375 3.71988 7.98206 3.40685 7.28982C3.09381 6.59759 3.01206 5.83591 3.17193 5.10113C3.3318 4.36635 3.72611 3.69148 4.30498 3.1619C4.88385 2.63231 5.62128 2.27181 6.42397 2.12597C7.22667 1.98014 8.05858 2.05554 8.81446 2.34263C9.57035 2.62972 10.2162 3.1156 10.6705 3.73881C11.1247 4.36203 11.3668 5.09457 11.3662 5.84379C11.3649 6.84801 10.9286 7.81077 10.1531 8.52095C9.3776 9.23113 8.32611 9.63076 7.22922 9.63221V9.62855ZM8.71022 4.20226L5.61022 7.03488C5.56948 7.07288 5.54666 7.124 5.54666 7.17725C5.54666 7.23049 5.56948 7.28161 5.61022 7.31961C5.65147 7.35735 5.7074 7.37854 5.76572 7.37854C5.82404 7.37854 5.87997 7.35735 5.92122 7.31961L9.02122 4.48699C9.06054 4.44888 9.08207 4.39823 9.08125 4.34582C9.08043 4.2934 9.05733 4.24334 9.01684 4.20627C8.97635 4.1692 8.92167 4.14805 8.86442 4.1473C8.80716 4.14655 8.75185 4.16627 8.71022 4.20226ZM7.65522 6.23472C7.57704 6.30592 7.51519 6.3907 7.47329 6.48409C7.43139 6.57747 7.41029 6.67758 7.41122 6.77854C7.41078 6.98222 7.49852 7.17777 7.65522 7.32236C7.73299 7.39393 7.8256 7.45055 7.9276 7.48892C8.0296 7.52728 8.13895 7.5466 8.24922 7.54574C8.35968 7.54666 8.46926 7.52765 8.57169 7.48979C8.67413 7.45194 8.76741 7.39597 8.84622 7.3251C8.9244 7.25295 8.98594 7.16713 9.02717 7.07277C9.0684 6.9784 9.08848 6.8774 9.08622 6.77579C9.08708 6.62366 9.03846 6.47473 8.94654 6.34799C8.85463 6.22125 8.72359 6.12242 8.57012 6.06409C8.41664 6.00577 8.24768 5.99059 8.08475 6.02048C7.92182 6.05038 7.77229 6.124 7.65522 6.23197V6.23472ZM8.52822 7.03397C8.49162 7.06847 8.44776 7.09584 8.3993 7.11441C8.35083 7.13297 8.29876 7.14236 8.24622 7.142C8.19414 7.14225 8.14256 7.13281 8.09459 7.11423C8.04663 7.09566 8.00329 7.06835 7.96722 7.03397C7.89283 6.96628 7.85046 6.87455 7.84922 6.77854C7.84894 6.73086 7.85926 6.68363 7.87955 6.63972C7.89983 6.59581 7.92966 6.55613 7.96722 6.52311C8.0419 6.45655 8.142 6.41932 8.24622 6.41932C8.35044 6.41932 8.45054 6.45655 8.52522 6.52311C8.56273 6.55574 8.59276 6.5949 8.61353 6.63828C8.63431 6.68167 8.64542 6.72842 8.64622 6.77579C8.64664 6.82384 8.6363 6.87146 8.61583 6.91571C8.59536 6.95995 8.5652 6.99989 8.52722 7.03305L8.52822 7.03397ZM6.20922 5.67716C6.43159 5.67707 6.64498 5.59682 6.80322 5.45378C6.8814 5.38257 6.94325 5.29779 6.98515 5.20441C7.02705 5.11102 7.04815 5.01091 7.04722 4.90996C7.04766 4.70627 6.95992 4.51073 6.80322 4.36614C6.72545 4.29457 6.63284 4.23794 6.53084 4.19958C6.42883 4.16122 6.31949 4.1419 6.20922 4.14275C5.9871 4.14275 5.77408 4.22353 5.61702 4.36733C5.45995 4.51112 5.37172 4.70615 5.37172 4.9095C5.37172 5.11285 5.45995 5.30788 5.61702 5.45167C5.77408 5.59547 5.9871 5.67625 6.20922 5.67625V5.67716ZM5.93022 4.65178C5.96647 4.61761 6.00984 4.59044 6.05776 4.57188C6.10569 4.55332 6.15719 4.54376 6.20922 4.54375C6.2613 4.5435 6.31288 4.55294 6.36085 4.57151C6.40881 4.59009 6.45215 4.61739 6.48822 4.65178C6.52555 4.68497 6.55522 4.72467 6.57549 4.76855C6.59576 4.81242 6.60621 4.85957 6.60622 4.90721C6.6065 4.95489 6.59618 5.00212 6.57589 5.04603C6.55561 5.08994 6.52578 5.12962 6.48822 5.16264C6.45197 5.19682 6.4086 5.22399 6.36068 5.24254C6.31276 5.2611 6.26125 5.27066 6.20922 5.27067C6.15715 5.27093 6.10555 5.26148 6.05759 5.24291C6.00963 5.22434 5.96629 5.19703 5.93022 5.16264C5.85682 5.09535 5.81559 5.00414 5.81559 4.90904C5.81559 4.81394 5.85682 4.72273 5.93022 4.65544V4.65178Z" fill="#E82828"/>
</svg>
