<svg width="28" height="27" viewBox="0 0 28 27" fill="none" xmlns="http://www.w3.org/2000/svg">
<path d="M3.75764 22.2228L4.6807 21.0096C4.86443 20.7757 4.96047 20.4688 4.94817 20.1549V19.9554C4.95849 19.8629 4.95012 19.7689 4.9237 19.6806C4.89728 19.5924 4.85352 19.5122 4.79578 19.4462C4.73803 19.3803 4.66782 19.3303 4.59054 19.3001C4.51327 19.27 4.43097 19.2604 4.34995 19.2722H1.34366C1.23177 19.2722 1.12446 19.323 1.04535 19.4133C0.96623 19.5037 0.921783 19.6262 0.921783 19.754V20.7176C0.921783 20.8454 0.96623 20.9679 1.04535 21.0583C1.12446 21.1487 1.23177 21.1994 1.34366 21.1994H2.54769C2.34298 21.4347 2.14921 21.682 1.96719 21.9404L1.67104 22.3625C1.56951 22.477 1.50098 22.6241 1.4746 22.7842C1.44822 22.9444 1.46523 23.1099 1.52338 23.2587L1.57907 23.3753C1.62766 23.5233 1.71683 23.6494 1.8333 23.7348C1.94977 23.8203 2.0873 23.8604 2.22538 23.8493H2.47851C3.02357 23.8493 3.32226 23.9968 3.32226 24.3967C3.32226 24.6858 3.10035 24.892 2.56288 24.892C2.2829 24.8894 2.00595 24.8256 1.74697 24.7041C1.40441 24.4699 1.12766 24.493 0.924314 24.892L0.629844 25.4528C0.578307 25.5241 0.540726 25.6072 0.519622 25.6965C0.498518 25.7858 0.49438 25.8792 0.507486 25.9705C0.520591 26.0617 0.550637 26.1487 0.595607 26.2257C0.640577 26.3026 0.699431 26.3676 0.76822 26.4164C1.36189 26.8036 2.03628 27.0001 2.71982 26.9849C3.04471 27.0247 3.37329 26.9854 3.6839 26.8696C3.9945 26.7537 4.28006 26.5639 4.52174 26.3128C4.76342 26.0617 4.95571 25.7548 5.08594 25.4126C5.21617 25.0703 5.28137 24.7004 5.27724 24.3273C5.27167 23.8313 5.11802 23.3524 4.84169 22.9697C4.56536 22.587 4.18292 22.3235 3.75764 22.2228ZM26.6562 11.5633H9.78119C9.55741 11.5633 9.3428 11.6648 9.18457 11.8456C9.02633 12.0263 8.93744 12.2714 8.93744 12.5269V14.4542C8.93744 14.7097 9.02633 14.9548 9.18457 15.1355C9.3428 15.3162 9.55741 15.4178 9.78119 15.4178H26.6562C26.88 15.4178 27.0946 15.3162 27.2529 15.1355C27.4111 14.9548 27.5 14.7097 27.5 14.4542V12.5269C27.5 12.2714 27.4111 12.0263 27.2529 11.8456C27.0946 11.6648 26.88 11.5633 26.6562 11.5633ZM26.6562 1.92722H9.78119C9.55741 1.92722 9.3428 2.02874 9.18457 2.20946C9.02633 2.39017 8.93744 2.63526 8.93744 2.89083V4.81805C8.93744 5.07362 9.02633 5.31871 9.18457 5.49943C9.3428 5.68014 9.55741 5.78166 9.78119 5.78166H26.6562C26.88 5.78166 27.0946 5.68014 27.2529 5.49943C27.4111 5.31871 27.5 5.07362 27.5 4.81805V2.89083C27.5 2.63526 27.4111 2.39017 27.2529 2.20946C27.0946 2.02874 26.88 1.92722 26.6562 1.92722ZM26.6562 21.1994H9.78119C9.55741 21.1994 9.3428 21.3009 9.18457 21.4817C9.02633 21.6624 8.93744 21.9075 8.93744 22.163V24.0903C8.93744 24.3458 9.02633 24.5909 9.18457 24.7716C9.3428 24.9523 9.55741 25.0539 9.78119 25.0539H26.6562C26.88 25.0539 27.0946 24.9523 27.2529 24.7716C27.4111 24.5909 27.5 24.3458 27.5 24.0903V22.163C27.5 21.9075 27.4111 21.6624 27.2529 21.4817C27.0946 21.3009 26.88 21.1994 26.6562 21.1994ZM1.34366 7.70888H4.71867C4.83056 7.70888 4.93787 7.65812 5.01698 7.56776C5.0961 7.47741 5.14055 7.35486 5.14055 7.22708V6.26347C5.14055 6.13568 5.0961 6.01313 5.01698 5.92278C4.93787 5.83242 4.83056 5.78166 4.71867 5.78166H3.87492V0.481805C3.87492 0.354022 3.83047 0.231473 3.75135 0.141118C3.67224 0.0507616 3.56493 0 3.45304 0H2.18741C2.10927 0.000181564 2.03271 0.0251434 1.96627 0.0721029C1.89982 0.119062 1.8461 0.186174 1.8111 0.265956L1.38922 1.22957C1.35702 1.30295 1.34177 1.38451 1.34492 1.46651C1.34807 1.54851 1.36951 1.62823 1.4072 1.69812C1.4449 1.768 1.4976 1.82573 1.56031 1.86583C1.62302 1.90592 1.69367 1.92705 1.76554 1.92722H2.18741V5.78166H1.34366C1.23177 5.78166 1.12446 5.83242 1.04535 5.92278C0.96623 6.01313 0.921783 6.13568 0.921783 6.26347V7.22708C0.921783 7.35486 0.96623 7.47741 1.04535 7.56776C1.12446 7.65812 1.23177 7.70888 1.34366 7.70888ZM1.13778 17.345H4.71867C4.83056 17.345 4.93787 17.2942 5.01698 17.2039C5.0961 17.1135 5.14055 16.991 5.14055 16.8632V15.8996C5.14055 15.7718 5.0961 15.6492 5.01698 15.5589C4.93787 15.4685 4.83056 15.4178 4.71867 15.4178H2.67848C2.85229 14.7982 5.22745 14.2932 5.22745 12.0181C5.22201 11.6815 5.15559 11.3499 5.0324 11.044C4.9092 10.7381 4.73189 10.4647 4.51162 10.2409C4.29136 10.0172 4.03292 9.84793 3.75257 9.74383C3.47222 9.63973 3.17604 9.60305 2.88266 9.6361C2.47451 9.61641 2.06817 9.70867 1.69765 9.90515C1.32713 10.1016 1.00322 10.3966 0.753032 10.7655C0.69992 10.8331 0.661057 10.9137 0.639418 11.0011C0.617779 11.0885 0.613938 11.1804 0.628189 11.2698C0.642439 11.3592 0.674403 11.4436 0.721634 11.5167C0.768866 11.5898 0.830113 11.6496 0.900689 11.6915L1.35294 12.1058C1.6491 12.3805 1.93344 12.2542 2.2026 11.9584C2.33573 11.8094 2.51488 11.7263 2.70126 11.7271C2.7646 11.7205 2.82844 11.7294 2.88856 11.7531C2.94868 11.7768 3.0037 11.8149 3.04997 11.8647C3.09624 11.9146 3.13271 11.9751 3.15696 12.0422C3.18121 12.1094 3.19269 12.1816 3.19063 12.2542C3.19063 13.0251 0.502438 13.5696 0.502438 16.417V16.6579C0.498482 16.7527 0.512487 16.8473 0.543494 16.9353C0.574502 17.0233 0.621781 17.1027 0.682102 17.1679C0.742423 17.2331 0.814363 17.2827 0.893007 17.3133C0.971651 17.3438 1.05515 17.3547 1.13778 17.345Z" fill="white"/>
</svg>
