<svg width="22" height="14" viewBox="0 0 22 14" fill="none" xmlns="http://www.w3.org/2000/svg">
<path d="M6.38989 11.3567C6.35732 11.3567 6.32507 11.3509 6.29499 11.3394C6.2649 11.328 6.23755 11.3113 6.21453 11.2902C6.1915 11.2691 6.17323 11.2441 6.16077 11.2165C6.14831 11.189 6.14189 11.1595 6.14189 11.1297C6.14189 10.6224 5.98881 10.125 5.69952 9.69231C5.41023 9.25965 4.99599 8.9086 4.50252 8.67788C4.00905 8.44716 3.45555 8.34575 2.9031 8.38485C2.35066 8.42395 1.82076 8.60202 1.37189 8.89944C1.31868 8.92965 1.25496 8.94035 1.19351 8.92933C1.13207 8.91832 1.07745 8.88645 1.04061 8.8401C1.00378 8.79374 0.987467 8.73636 0.994936 8.67944C1.00241 8.62253 1.03311 8.57031 1.08089 8.53326C1.60353 8.18568 2.22106 7.97727 2.86508 7.93117C3.5091 7.88507 4.15448 8.00304 4.72978 8.27203C5.30509 8.54102 5.78785 8.95053 6.12463 9.45521C6.4614 9.95989 6.63904 10.5401 6.63789 11.1315C6.63736 11.1914 6.611 11.2486 6.56455 11.2908C6.5181 11.333 6.45532 11.3567 6.38989 11.3567ZM14.2479 13.2674C13.8472 13.2671 13.4521 13.1811 13.094 13.0164C12.7359 12.8517 12.4248 12.6128 12.1854 12.3187C11.9459 12.0245 11.7847 11.6832 11.7147 11.322C11.6447 10.9608 11.6677 10.5896 11.7819 10.238C11.7971 10.1912 11.8284 10.1502 11.8711 10.121C11.9138 10.0918 11.9656 10.076 12.0189 10.0759H16.4769C16.5302 10.076 16.582 10.0918 16.6247 10.121C16.6674 10.1502 16.6986 10.1912 16.7139 10.238C16.8281 10.5896 16.8511 10.9608 16.7811 11.322C16.711 11.6832 16.5499 12.0245 16.3104 12.3187C16.071 12.6128 15.7598 12.8517 15.4018 13.0164C15.0437 13.1811 14.6486 13.2671 14.2479 13.2674ZM12.2119 10.53C12.1498 10.8065 12.1558 11.0922 12.2293 11.3664C12.3028 11.6405 12.4421 11.8963 12.637 12.1151C12.8318 12.3339 13.0775 12.5102 13.356 12.6313C13.6345 12.7524 13.939 12.8152 14.2474 12.8152C14.5557 12.8152 14.8602 12.7524 15.1388 12.6313C15.4173 12.5102 15.6629 12.3339 15.8578 12.1151C16.0527 11.8963 16.1919 11.6405 16.2655 11.3664C16.339 11.0922 16.3449 10.8065 16.2829 10.53H12.2119Z" fill="#204F38"/>
<path d="M14.2467 11.7981C14.0228 11.7981 13.8058 11.7271 13.6328 11.597C13.4597 11.467 13.3413 11.286 13.2978 11.0849C13.2542 10.8839 13.2882 10.6752 13.394 10.4945C13.4998 10.3138 13.6707 10.1724 13.8777 10.0943C13.9075 10.0829 13.9394 10.077 13.9717 10.0769H14.5207C14.553 10.077 14.5849 10.0829 14.6147 10.0943C14.8217 10.1724 14.9927 10.3138 15.0984 10.4945C15.2042 10.6752 15.2382 10.8839 15.1947 11.0849C15.1511 11.286 15.0327 11.467 14.8596 11.597C14.6866 11.7271 14.4696 11.7981 14.2457 11.7981H14.2467ZM14.0267 10.5309C13.9337 10.5759 13.8598 10.6482 13.8168 10.7361C13.7738 10.824 13.7643 10.9225 13.7896 11.016C13.8149 11.1095 13.8737 11.1925 13.9565 11.2518C14.0394 11.3112 14.1415 11.3434 14.2467 11.3434C14.3519 11.3434 14.4541 11.3112 14.537 11.2518C14.6198 11.1925 14.6786 11.1095 14.7039 11.016C14.7292 10.9225 14.7196 10.824 14.6766 10.7361C14.6336 10.6482 14.5597 10.5759 14.4667 10.5309H14.0267Z" fill="#204F38"/>
<path d="M19.236 10.5311H9.97998C9.9142 10.5311 9.85113 10.5072 9.80462 10.4646C9.75811 10.422 9.73199 10.3643 9.73199 10.304V9.28232C9.73305 8.52286 10.063 7.79479 10.6496 7.25777C11.2362 6.72075 12.0315 6.41862 12.861 6.41765H13.233C14.4547 6.43237 15.6461 6.76758 16.666 7.38352C17.8401 8.09047 18.7994 9.05842 19.454 10.1969C19.4742 10.2315 19.4842 10.2702 19.4832 10.3094C19.4822 10.3485 19.4702 10.3868 19.4482 10.4205C19.4263 10.4541 19.3952 10.482 19.358 10.5013C19.3208 10.5207 19.2788 10.531 19.236 10.5311ZM10.228 10.0733H18.81C18.2586 9.14615 17.456 8.36437 16.4794 7.8032C15.5027 7.24203 14.3847 6.92034 13.233 6.86902H12.861C12.1629 6.86974 11.4937 7.12395 11 7.57586C10.5064 8.02777 10.2288 8.64048 10.228 9.27958V10.0733ZM3.53999 8.397H3.52398C3.45834 8.39323 3.39703 8.36577 3.35353 8.32061C3.31002 8.27546 3.28788 8.21631 3.29199 8.15622C3.3862 6.73117 3.75416 5.33251 4.37898 4.02447C4.49098 3.74982 4.60599 3.47059 4.73199 3.15382C4.75453 3.09725 4.8007 3.05119 4.86033 3.02578C4.91997 3.00036 4.98819 2.99768 5.04998 3.01832C5.11178 3.03895 5.16209 3.08123 5.18985 3.13583C5.2176 3.19043 5.22052 3.2529 5.19798 3.30947C5.07098 3.62807 4.95498 3.91096 4.84298 4.18378C4.23361 5.4508 3.87601 6.80718 3.78698 8.18919C3.78268 8.24651 3.7548 8.3002 3.70897 8.33944C3.66313 8.37869 3.60275 8.40056 3.53999 8.40066V8.397ZM5.46699 9.27592H5.44699C5.3815 9.27102 5.3208 9.24251 5.27824 9.19668C5.23568 9.15085 5.21473 9.09144 5.21998 9.03148C5.24582 7.93849 5.45215 6.85537 5.83198 5.81891C5.89198 5.63581 5.96099 5.42705 6.03999 5.18443C6.15882 4.83326 6.18824 4.46185 6.12599 4.09865C6.0942 3.95726 6.02904 3.82392 5.93507 3.708C5.8411 3.59208 5.72059 3.49639 5.58198 3.42757C5.52538 3.40088 5.48216 3.35526 5.46127 3.3002C5.44038 3.24513 5.44342 3.18482 5.46977 3.13175C5.49612 3.07868 5.54374 3.03693 5.60279 3.01513C5.66185 2.99333 5.7278 2.99316 5.78698 3.01466C5.99379 3.11051 6.17458 3.24749 6.31611 3.41556C6.45764 3.58363 6.55633 3.77853 6.60498 3.98603C6.69098 4.42913 6.65979 4.88464 6.51399 5.31444C6.43499 5.55888 6.36598 5.76763 6.30598 5.95531C5.93675 6.96085 5.73713 8.01204 5.71399 9.07266C5.70858 9.12838 5.68089 9.18032 5.63623 9.2185C5.59157 9.25669 5.53308 9.27844 5.47198 9.27958L5.46699 9.27592Z" fill="#204F38"/>
<path d="M9.97784 10.5311H6.29884C6.23254 10.5311 6.16894 10.5069 6.12206 10.464C6.07517 10.4211 6.04884 10.3629 6.04884 10.3022C6.04884 10.2415 6.07517 10.1833 6.12206 10.1403C6.16894 10.0974 6.23254 10.0733 6.29884 10.0733H9.97684C10.0431 10.0733 10.1067 10.0974 10.1536 10.1403C10.2005 10.1833 10.2268 10.2415 10.2268 10.3022C10.2268 10.3629 10.2005 10.4211 10.1536 10.464C10.1067 10.5069 10.0431 10.5311 9.97684 10.5311H9.97784ZM5.47784 3.46141H4.37784C4.27935 3.46117 4.18498 3.42518 4.11543 3.36133C4.04589 3.29749 4.00684 3.211 4.00684 3.12083V1.63587C4.00684 1.54571 4.04589 1.45921 4.11543 1.39537C4.18498 1.33153 4.27935 1.29553 4.37784 1.29529H5.47784C5.7916 1.29529 6.09249 1.4094 6.31435 1.61252C6.5362 1.81563 6.66084 2.09112 6.66084 2.37837C6.66084 2.66561 6.5362 2.94107 6.31435 3.14419C6.09249 3.3473 5.7916 3.46141 5.47784 3.46141ZM4.49884 3.00365H5.47784C5.66005 3.00365 5.83479 2.9374 5.96362 2.81945C6.09246 2.70149 6.16484 2.54149 6.16484 2.37468C6.16484 2.20787 6.09246 2.04789 5.96362 1.92994C5.83479 1.81198 5.66005 1.74573 5.47784 1.74573H4.49884V3.00365ZM19.6228 5.93333H14.4568C14.3458 5.93339 14.2361 5.91128 14.1353 5.86856C14.0346 5.82585 13.9452 5.76354 13.8734 5.68598C13.8017 5.60842 13.7492 5.5175 13.7198 5.41949C13.6903 5.32149 13.6845 5.21876 13.7028 5.1185L14.4308 1.11768C14.4601 0.954039 14.552 0.805291 14.6902 0.698086C14.8284 0.590881 15.0037 0.532223 15.1848 0.532656H20.3508C20.4619 0.532595 20.5716 0.554706 20.6723 0.59742C20.7731 0.640134 20.8625 0.702417 20.9342 0.779976C21.006 0.857536 21.0584 0.948485 21.0879 1.04649C21.1174 1.1445 21.1232 1.24722 21.1048 1.34748L20.3768 5.3483C20.348 5.51204 20.2564 5.661 20.1184 5.7684C19.9803 5.8758 19.805 5.93459 19.6238 5.93422L19.6228 5.93333ZM15.1848 0.989494C15.1213 0.989356 15.0597 1.0099 15.0112 1.04747C14.9626 1.08503 14.9303 1.1372 14.9198 1.1946L14.1918 5.19542C14.1855 5.23066 14.1875 5.26673 14.1979 5.30117C14.2083 5.3356 14.2267 5.36756 14.2519 5.39482C14.2771 5.42208 14.3085 5.44401 14.3439 5.45906C14.3793 5.4741 14.4178 5.48192 14.4568 5.48197H19.6228C19.6864 5.48229 19.7481 5.46181 19.7967 5.42421C19.8453 5.38662 19.8776 5.33437 19.8878 5.27689L20.6158 1.27607C20.6224 1.24081 20.6205 1.20465 20.6102 1.17015C20.5998 1.13565 20.5814 1.10363 20.5562 1.07633C20.5309 1.04903 20.4995 1.02712 20.464 1.01213C20.4285 0.997129 20.3899 0.989387 20.3508 0.989494H15.1848Z" fill="#204F38"/>
<path d="M18.522 9.50915C18.4642 9.5091 18.4082 9.49057 18.3638 9.45677C18.3193 9.42297 18.2892 9.37602 18.2785 9.32403C18.2678 9.27203 18.2773 9.21825 18.3053 9.17198C18.3334 9.12571 18.3782 9.08987 18.432 9.07062C18.5244 9.03046 18.6027 8.96742 18.658 8.88862C18.7134 8.80982 18.7435 8.71842 18.745 8.62476C18.7273 8.39101 18.6543 8.16358 18.531 7.95826L17.468 5.80038C17.4515 5.77282 17.4415 5.74241 17.4385 5.71112C17.4356 5.67982 17.4397 5.6483 17.4508 5.61855C17.4618 5.58881 17.4794 5.5615 17.5026 5.53831C17.5257 5.51513 17.5539 5.4966 17.5853 5.48389C17.6166 5.47118 17.6506 5.46456 17.6849 5.46447C17.7192 5.46437 17.7531 5.47079 17.7846 5.48333C17.8161 5.49587 17.8443 5.51425 17.8676 5.53731C17.8909 5.56036 17.9088 5.58758 17.92 5.61727L18.983 7.77241C19.1391 8.03931 19.2273 8.33508 19.241 8.63758C19.2365 8.82038 19.1748 8.99814 19.0633 9.14985C18.9518 9.30156 18.7952 9.42085 18.612 9.49359C18.5833 9.50389 18.5528 9.50917 18.522 9.50915ZM9.98999 9.27935C9.92974 9.27937 9.87155 9.2593 9.82628 9.22291C9.78101 9.18652 9.75176 9.13629 9.74399 9.0816C9.72099 8.9223 9.70599 8.74013 9.68999 8.54787C9.65439 7.61436 9.42603 6.69546 9.01698 5.83975C8.93506 5.6783 8.89896 5.50052 8.912 5.3229C8.92504 5.14528 8.98681 4.97356 9.09159 4.82359C9.19637 4.67363 9.34078 4.55027 9.51145 4.46496C9.68212 4.37965 9.87354 4.33515 10.068 4.33555H14.033C14.0993 4.33555 14.1629 4.35965 14.2098 4.40257C14.2566 4.4455 14.283 4.50372 14.283 4.56443C14.283 4.62513 14.2566 4.68336 14.2098 4.72628C14.1629 4.7692 14.0993 4.79331 14.033 4.79331H10.068C9.9562 4.79304 9.84617 4.81878 9.74822 4.8681C9.65027 4.91742 9.56761 4.98873 9.50799 5.0753C9.44766 5.15994 9.41212 5.25734 9.40476 5.35819C9.39741 5.45903 9.41849 5.55993 9.46599 5.65116C9.90166 6.5557 10.1453 7.52788 10.184 8.51582C10.201 8.70991 10.215 8.88201 10.236 9.02574C10.2402 9.05532 10.238 9.08537 10.2295 9.11417C10.2211 9.14297 10.2065 9.16997 10.1866 9.1936C10.1667 9.21724 10.1419 9.23707 10.1137 9.25194C10.0855 9.26681 10.0543 9.27643 10.022 9.28027L9.98999 9.27935ZM20.753 2.1383H14.54C14.4737 2.1383 14.4101 2.11417 14.3632 2.07125C14.3163 2.02832 14.29 1.97012 14.29 1.90942C14.29 1.84872 14.3163 1.79049 14.3632 1.74757C14.4101 1.70465 14.4737 1.68054 14.54 1.68054H20.753C20.8193 1.68054 20.8829 1.70465 20.9298 1.74757C20.9766 1.79049 21.003 1.84872 21.003 1.90942C21.003 1.97012 20.9766 2.02832 20.9298 2.07125C20.8829 2.11417 20.8193 2.1383 20.753 2.1383ZM3.13399 13.2326C2.67909 13.2326 2.23441 13.1091 1.85618 12.8777C1.47794 12.6463 1.18314 12.3174 1.00906 11.9327C0.83498 11.5479 0.789434 11.1245 0.87818 10.7161C0.966926 10.3076 1.18598 9.93241 1.50764 9.63793C1.8293 9.34344 2.23912 9.1429 2.68528 9.06165C3.13143 8.9804 3.59389 9.0221 4.01416 9.18148C4.43443 9.34085 4.79363 9.61074 5.04636 9.95702C5.29909 10.3033 5.43398 10.7104 5.43398 11.1269C5.43398 11.6853 5.19166 12.2209 4.76033 12.6158C4.32899 13.0107 3.74398 13.2326 3.13399 13.2326ZM3.13399 9.47345C2.77703 9.47345 2.42809 9.57035 2.13128 9.75189C1.83448 9.93343 1.60312 10.1914 1.46647 10.4933C1.32983 10.7953 1.29403 11.1275 1.36359 11.448C1.43316 11.7685 1.60497 12.063 1.85731 12.2941C2.10964 12.5253 2.43116 12.6827 2.78123 12.7466C3.1313 12.8105 3.4942 12.7779 3.82403 12.653C4.15387 12.528 4.43584 12.3163 4.6343 12.0447C4.83275 11.7731 4.93879 11.4537 4.93899 11.1269C4.93714 10.6895 4.74621 10.2707 4.40796 9.96186C4.06972 9.65304 3.61167 9.47943 3.13399 9.47895V9.47345Z" fill="#204F38"/>
<path d="M3.13397 11.9392C2.95933 11.9392 2.78861 11.8918 2.6434 11.8029C2.49819 11.7141 2.38502 11.5878 2.31819 11.4401C2.25136 11.2924 2.23387 11.1298 2.26794 10.973C2.30201 10.8162 2.38611 10.6722 2.5096 10.5591C2.63309 10.4461 2.79043 10.3691 2.96172 10.3379C3.133 10.3067 3.31053 10.3227 3.47188 10.3839C3.63322 10.4451 3.77114 10.5487 3.86816 10.6816C3.96519 10.8145 4.01697 10.9709 4.01697 11.1308C4.0167 11.3451 3.92359 11.5506 3.75806 11.7021C3.59252 11.8537 3.36808 11.9389 3.13397 11.9392ZM3.13397 10.7764C3.05743 10.7764 2.9826 10.7972 2.91896 10.8362C2.85532 10.8751 2.80572 10.9304 2.77643 10.9951C2.74714 11.0599 2.73948 11.1312 2.75441 11.1999C2.76934 11.2686 2.8062 11.3317 2.86032 11.3813C2.91444 11.4308 2.9834 11.4645 3.05847 11.4782C3.13354 11.4919 3.21136 11.4849 3.28207 11.4581C3.35279 11.4313 3.41322 11.3858 3.45575 11.3276C3.49827 11.2693 3.52098 11.2008 3.52098 11.1308C3.52072 11.0369 3.47985 10.9469 3.40733 10.8805C3.33481 10.8141 3.23653 10.7767 3.13397 10.7764Z" fill="#204F38"/>
<path d="M7.43018 3.07134C7.39349 3.07138 7.35725 3.06388 7.32416 3.04938L6.30716 2.60718C6.25031 2.58004 6.20715 2.5338 6.18674 2.47816C6.16632 2.42252 6.17024 2.36179 6.19766 2.30873C6.22509 2.25568 6.27389 2.2144 6.33383 2.19357C6.39377 2.17274 6.4602 2.174 6.51916 2.19703L7.53616 2.6392C7.58698 2.66131 7.62808 2.69859 7.65271 2.7449C7.67734 2.7912 7.68402 2.84379 7.67169 2.89404C7.65936 2.94429 7.62876 2.98922 7.58487 3.02144C7.54098 3.05366 7.48643 3.07125 7.43018 3.07134Z" fill="#204F38"/>
</svg>
