<svg width="28" height="24" viewBox="0 0 28 24" fill="none" xmlns="http://www.w3.org/2000/svg">
<path d="M24.6498 4.4925C24.5434 4.0455 24.241 3.708 23.8952 3.6045C23.282 3.42 20.3014 3 14.0014 3C7.7014 3 4.7222 3.42 4.1048 3.6045C3.7632 3.7065 3.4608 4.044 3.353 4.4925C3.2004 5.1285 2.8014 7.7925 2.8014 12C2.8014 16.206 3.2004 18.87 3.353 19.509C3.4594 19.9545 3.7618 20.292 4.1062 20.394C4.7222 20.58 7.7 21 14 21C20.3 21 23.2806 20.58 23.8966 20.3955C24.2382 20.2935 24.5406 19.956 24.6484 19.5075C24.8024 18.8715 25.2 16.2 25.2 12C25.2 7.8 24.8024 5.13 24.6498 4.4925ZM27.3602 3.747C28 6.42 28 12 28 12C28 12 28 17.58 27.3602 20.253C27.0046 21.7305 25.9644 22.893 24.647 23.286C22.2558 24 14 24 14 24C14 24 5.7498 24 3.353 23.286C2.03 22.887 0.9912 21.726 0.6398 20.253C6.41896e-08 17.58 0 12 0 12C0 12 6.41896e-08 6.42 0.6398 3.747C0.9954 2.2695 2.0356 1.107 3.353 0.714C5.7512 -2.60093e-07 14.0014 0 14.0014 0C14.0014 0 22.2558 -2.60093e-07 24.6484 0.714C25.97 1.113 27.0102 2.274 27.3616 3.747M11.2014 17.25V6.75L19.6014 12L11.2014 17.25Z" fill="#C5221F"/>
</svg>
